<?xml version="1.0" encoding="utf-8"?>
<svg viewBox="0 0 1400 400" xmlns="http://www.w3.org/2000/svg">
  <g transform="matrix(1, 0, 0, 1, 422.661407, 28.49403)">
    <path d="M -241.583 29.597 C -257.883 45.497 -269.883 57.797 -269.483 58.097 C -269.183 58.497 -264.383 55.797 -244.183 44.097 C -236.983 39.897 -230.383 36.397 -229.683 36.397 C -227.483 36.397 -214.683 43.297 -201.983 51.197 C -195.683 55.197 -190.183 58.397 -189.683 58.397 C -189.183 58.397 -189.683 57.197 -190.683 55.597 C -193.483 51.797 -225.383 20.797 -227.883 19.397 C -229.783 18.397 -231.183 19.297 -241.583 29.597 Z" stroke="none" style="fill: rgb(141, 0, 0);"/>
    <path d="M -326.883 42.297 C -326.883 42.797 -327.783 50.997 -328.983 60.597 C -330.083 70.097 -330.883 79.297 -330.683 81.097 C -330.483 82.797 -330.683 83.997 -331.083 83.797 C -331.483 83.497 -331.883 86.097 -331.783 89.597 L -331.783 95.897 L -329.383 89.397 C -327.983 85.797 -325.283 78.097 -323.283 72.197 C -317.283 54.297 -314.483 52.797 -296.383 58.397 C -281.383 62.997 -282.383 61.597 -300.383 52.597 C -313.183 46.197 -324.183 41.397 -325.883 41.397 C -326.383 41.397 -326.883 41.797 -326.883 42.297 Z" stroke="none" style="fill: rgb(141, 0, 0);"/>
    <path d="M -139.383 42.997 C -155.783 51.597 -170.883 59.897 -170.883 60.497 C -170.883 61.297 -167.183 60.397 -155.583 56.797 C -144.083 53.197 -143.183 53.397 -140.483 59.597 C -139.183 62.497 -136.283 71.397 -133.883 79.397 C -127.883 99.997 -127.783 100.297 -128.383 89.897 C -129.083 79.497 -132.683 44.497 -133.383 42.597 C -133.983 40.997 -135.683 41.097 -139.383 42.997 Z" stroke="none" style="fill: rgb(141, 0, 0);"/>
    <path d="M -232.883 71.597 C -233.383 72.897 -233.983 75.097 -234.283 76.597 C -234.683 78.097 -235.783 79.797 -236.883 80.397 C -240.483 82.297 -256.683 83.197 -269.583 82.197 C -276.483 81.697 -283.183 81.497 -284.483 81.797 C -288.183 82.797 -289.883 87.397 -290.483 98.197 C -291.183 111.097 -290.183 116.397 -286.583 118.397 C -281.383 121.297 -279.483 118.197 -278.383 105.097 C -277.483 94.797 -275.683 92.497 -267.683 91.697 C -256.683 90.597 -253.883 93.697 -253.883 107.097 C -253.883 113.597 -253.583 114.797 -251.383 116.897 C -248.683 119.697 -246.183 119.997 -243.383 117.997 C -241.783 116.797 -241.383 114.897 -240.883 106.497 C -240.183 93.497 -239.283 92.297 -228.683 91.597 C -221.983 91.197 -220.983 91.397 -218.483 93.597 C -215.983 95.697 -215.683 96.797 -214.983 105.197 C -214.283 112.897 -213.783 114.897 -211.783 116.997 C -210.283 118.597 -208.583 119.397 -206.883 119.197 C -204.883 118.997 -204.183 118.097 -203.183 114.397 C -202.583 111.897 -201.983 106.897 -201.983 103.197 C -201.883 99.097 -201.383 95.997 -200.583 95.197 C -199.183 93.897 -182.183 93.497 -180.183 94.697 C -179.583 95.097 -178.883 99.097 -178.583 103.597 C -177.583 117.397 -174.283 122.897 -169.883 118.197 C -166.783 114.797 -165.683 109.097 -166.083 97.797 C -166.483 84.497 -166.883 83.997 -178.183 83.597 C -194.283 83.097 -215.483 81.197 -218.483 79.897 C -220.783 78.997 -221.783 77.797 -222.283 75.397 C -223.183 70.797 -224.583 69.397 -228.483 69.397 C -231.083 69.397 -232.183 69.897 -232.883 71.597 Z" stroke="none" style="fill: rgb(141, 0, 0);"/>
    <path d="M 40.917 83.597 L 40.617 93.897 L 32.917 93.597 L 25.117 93.197 L 25.117 96.397 L 25.117 99.597 L 34.617 98.897 C 39.817 98.497 46.517 98.497 49.617 98.897 L 55.117 99.497 L 52.517 104.697 C 46.517 116.597 33.317 132.397 24.317 138.597 C 22.317 139.997 22.117 140.497 23.017 142.297 C 23.717 143.497 24.717 144.397 25.417 144.397 C 26.117 144.397 29.917 141.197 33.917 137.197 L 41.117 129.997 L 41.117 155.197 L 41.117 180.397 L 44.117 180.397 L 47.117 180.397 L 47.117 154.197 L 47.117 127.997 L 52.417 133.197 C 58.017 138.797 59.217 139.197 61.117 136.897 C 62.117 135.697 61.117 134.297 55.117 128.697 L 47.917 121.897 L 53.417 112.897 C 56.517 107.897 59.917 102.397 61.117 100.497 C 63.017 97.397 63.117 96.997 61.617 95.497 C 60.517 94.397 58.217 93.897 53.817 93.897 L 47.617 93.897 L 47.617 84.397 C 47.617 79.197 47.217 74.597 46.617 74.197 C 46.117 73.797 44.617 73.397 43.417 73.397 C 41.317 73.397 41.217 73.797 40.917 83.597 Z" fill="#000000" stroke="none"/>
    <path d="M 431.117 74.397 C 429.917 75.097 430.317 76.497 433.417 82.797 C 437.117 90.297 438.217 91.297 441.017 89.497 C 442.117 88.797 441.617 87.197 438.417 81.297 C 434.117 73.497 433.417 72.897 431.117 74.397 Z" fill="#000000" stroke="none"/>
    <path d="M 671.117 74.397 C 669.917 75.097 670.317 76.497 673.417 82.797 C 677.117 90.297 678.217 91.297 681.017 89.497 C 682.117 88.797 681.617 87.197 678.417 81.297 C 674.117 73.497 673.417 72.897 671.117 74.397 Z" fill="#000000" stroke="none"/>
    <path d="M 773.117 80.397 L 773.117 87.397 L 761.117 87.397 L 749.117 87.397 L 749.117 89.897 L 749.117 92.397 L 776.117 92.397 L 803.117 92.397 L 803.117 89.897 L 803.117 87.397 L 791.217 87.397 L 779.417 87.397 L 778.817 84.597 C 778.517 82.997 778.617 80.097 779.017 78.097 C 780.017 73.897 779.717 73.397 775.917 73.397 L 773.117 73.397 L 773.117 80.397 Z" fill="#000000" stroke="none"/>
    <path d="M 313.017 82.997 C 313.217 87.797 313.017 95.397 312.617 99.997 L 311.917 108.397 L 289.017 108.397 L 266.117 108.397 L 266.117 110.897 L 266.117 113.397 L 288.617 113.397 L 311.217 113.397 L 310.617 117.097 C 306.717 140.897 293.317 159.297 271.817 170.497 L 264.017 174.497 L 266.717 176.597 L 269.317 178.697 L 274.717 175.797 C 283.117 171.297 294.017 162.497 299.417 155.897 C 305.617 148.197 312.317 134.797 314.617 125.497 L 316.417 118.097 L 318.617 123.997 C 326.417 144.697 340.317 162.697 356.917 173.497 C 361.017 176.197 364.617 178.397 365.017 178.397 C 365.817 178.297 369.417 173.397 368.917 172.997 C 368.817 172.797 365.817 171.197 362.517 169.497 C 346.217 160.897 331.017 142.597 323.117 122.197 C 321.417 117.897 320.117 114.197 320.117 113.897 C 320.117 113.597 330.717 113.397 343.617 113.397 L 367.117 113.397 L 367.117 110.897 L 367.117 108.397 L 342.517 108.397 L 317.917 108.397 L 318.517 95.597 C 318.917 88.597 319.417 81.197 319.717 79.097 C 320.217 75.697 320.117 75.397 317.817 75.397 C 316.417 75.397 314.717 75.197 313.917 74.897 C 312.917 74.497 312.717 76.097 313.017 82.997 Z" fill="#000000" stroke="none"/>
    <path d="M 465.717 77.597 C 465.417 79.297 463.217 83.997 460.917 87.997 L 456.717 95.397 L 422.917 95.397 L 389.117 95.397 L 389.117 107.397 L 389.117 119.397 L 392.117 119.397 L 395.117 119.397 L 395.117 109.897 L 395.117 100.397 L 437.617 100.397 L 480.117 100.397 L 480.117 109.897 C 480.117 119.397 480.117 119.397 482.617 119.397 L 485.117 119.397 L 485.117 107.397 L 485.117 95.397 L 474.117 95.397 C 468.117 95.397 463.117 95.197 463.117 94.897 C 463.117 93.797 469.517 82.797 471.517 80.597 C 473.617 78.197 473.317 77.497 469.017 75.697 C 466.517 74.597 466.317 74.697 465.717 77.597 Z" fill="#000000" stroke="none"/>
    <path d="M 705.717 77.597 C 705.417 79.297 703.217 83.997 700.917 87.997 L 696.717 95.397 L 662.917 95.397 L 629.117 95.397 L 629.117 107.397 L 629.117 119.397 L 632.117 119.397 L 635.117 119.397 L 635.117 109.897 L 635.117 100.397 L 677.617 100.397 L 720.117 100.397 L 720.117 109.897 C 720.117 119.397 720.117 119.397 722.617 119.397 L 725.117 119.397 L 725.117 107.397 L 725.117 95.397 L 714.117 95.397 C 708.117 95.397 703.117 95.197 703.117 94.897 C 703.117 93.797 709.517 82.797 711.517 80.597 C 713.617 78.197 713.317 77.497 709.017 75.697 C 706.517 74.597 706.317 74.697 705.717 77.597 Z" fill="#000000" stroke="none"/>
    <path d="M 403.417 76.597 C 401.317 77.597 401.317 77.697 405.617 83.897 C 407.917 87.297 410.117 90.797 410.317 91.497 C 410.717 92.597 411.317 92.597 413.517 91.597 L 416.217 90.397 L 411.017 82.897 C 408.217 78.797 405.817 75.397 405.717 75.497 C 405.717 75.497 404.617 75.997 403.417 76.597 Z" fill="#000000" stroke="none"/>
    <path d="M 643.417 76.597 C 641.317 77.597 641.317 77.697 645.617 83.897 C 647.917 87.297 650.117 90.797 650.317 91.497 C 650.717 92.597 651.317 92.597 653.517 91.597 L 656.217 90.397 L 651.017 82.897 C 648.217 78.797 645.817 75.397 645.717 75.497 C 645.717 75.497 644.617 75.997 643.417 76.597 Z" fill="#000000" stroke="none"/>
    <path d="M 827.417 80.097 L 811.117 80.397 L 811.117 130.397 L 811.117 180.397 L 813.617 180.397 L 816.117 180.397 L 816.117 132.897 L 816.117 85.397 L 828.617 85.397 C 835.517 85.397 841.117 85.697 841.117 85.997 C 841.117 87.497 830.917 107.497 827.317 112.997 L 823.317 119.097 L 831.617 126.697 C 841.317 135.597 844.617 141.397 843.817 147.597 C 842.917 154.397 839.317 156.897 827.517 159.097 C 823.717 159.797 823.417 160.097 824.217 162.197 C 825.017 164.297 825.517 164.397 830.317 163.797 C 842.417 162.397 849.117 156.297 849.117 146.697 C 849.117 139.297 846.417 134.397 837.517 125.697 C 833.417 121.797 830.117 118.297 830.117 117.997 C 830.117 117.797 832.117 114.097 834.617 109.897 C 837.117 105.697 840.917 98.797 843.117 94.597 C 845.317 90.397 847.717 86.097 848.317 85.197 C 849.317 83.797 849.217 83.097 847.717 81.497 C 846.617 80.297 845.317 79.497 844.717 79.597 C 844.117 79.697 836.317 79.997 827.417 80.097 Z" fill="#000000" stroke="none"/>
    <path d="M 63.117 83.097 L 63.117 85.897 L 95.817 85.697 L 128.617 85.597 L 128.917 82.997 L 129.217 80.397 L 96.217 80.397 L 63.117 80.397 L 63.117 83.097 Z" fill="#000000" stroke="none"/>
    <path d="M 151.617 130.397 L 151.617 180.397 L 154.417 180.397 L 157.117 180.397 L 157.117 132.897 L 157.117 85.397 L 197.617 85.397 L 238.117 85.397 L 238.117 127.497 C 238.117 154.597 237.717 170.197 237.117 171.497 C 236.217 173.097 234.917 173.397 229.717 173.397 L 223.317 173.397 L 224.417 176.397 C 225.417 179.097 226.017 179.397 229.617 179.397 C 234.617 179.397 240.817 177.697 241.817 176.097 C 242.217 175.397 242.817 153.597 243.117 127.597 L 243.617 80.397 L 197.617 80.397 L 151.617 80.397 L 151.617 130.397 Z" fill="#000000" stroke="none"/>
    <path d="M 513.117 91.397 L 513.117 94.397 L 533.117 94.397 L 553.117 94.397 L 553.117 128.497 L 553.117 162.597 L 529.917 162.297 L 506.617 161.897 L 506.317 164.597 L 506.017 167.397 L 557.017 167.397 L 608.117 167.397 L 608.117 164.597 L 608.117 161.797 L 583.617 162.197 L 559.117 162.597 L 559.117 128.497 L 559.117 94.397 L 580.117 94.397 L 601.117 94.397 L 601.117 91.397 L 601.117 88.397 L 557.117 88.397 L 513.117 88.397 L 513.117 91.397 Z" fill="#000000" stroke="none"/>
    <path d="M 177.917 92.497 C 176.417 93.397 176.617 94.097 180.117 100.697 C 184.017 107.897 185.417 109.097 187.917 107.497 C 189.417 106.597 188.417 103.897 183.217 95.697 C 180.417 90.997 180.417 90.997 177.917 92.497 Z" fill="#000000" stroke="none"/>
    <path d="M 212.017 94.097 C 211.517 95.597 209.117 100.497 206.917 105.097 L 202.817 113.397 L 183.417 113.397 L 164.117 113.397 L 164.117 115.897 L 164.117 118.397 L 179.117 118.397 L 194.117 118.397 L 194.117 135.897 L 194.117 153.397 L 185.517 153.397 L 176.917 153.397 L 177.217 142.597 L 177.517 131.897 L 174.217 131.597 C 171.117 131.297 170.917 131.397 171.517 133.597 C 171.817 134.897 172.117 142.997 172.117 151.597 L 172.117 167.397 L 174.617 167.397 C 176.917 167.397 177.117 166.997 177.117 162.897 L 177.117 158.397 L 197.617 158.397 L 218.117 158.397 L 218.117 161.397 C 218.117 163.897 218.517 164.397 220.617 164.397 L 223.117 164.397 L 223.117 151.597 C 223.117 144.597 223.417 137.297 223.717 135.297 C 224.317 131.797 224.217 131.597 221.017 131.297 L 217.617 130.897 L 217.917 142.097 L 218.317 153.397 L 209.217 153.397 L 200.117 153.397 L 200.117 135.897 L 200.117 118.397 L 215.617 118.397 L 231.117 118.397 L 231.117 115.897 L 231.117 113.397 L 219.617 113.397 L 208.017 113.397 L 212.217 105.597 C 214.517 101.397 217.117 97.097 217.917 96.097 C 219.617 94.197 219.617 94.197 216.417 92.497 C 213.417 90.997 213.217 90.997 212.017 94.097 Z" fill="#000000" stroke="none"/>
    <path d="M 72.117 108.897 L 72.117 121.397 L 95.617 121.397 L 119.117 121.397 L 119.117 108.897 L 119.117 96.397 L 95.617 96.397 L 72.117 96.397 L 72.117 108.897 Z M 113.117 108.397 L 113.117 116.397 L 95.117 116.397 L 77.117 116.397 L 77.117 108.397 L 77.117 100.397 L 95.117 100.397 L 113.117 100.397 L 113.117 108.397 Z" fill="#000000" stroke="none"/>
    <path d="M 759.317 97.197 C 758.317 97.897 758.617 99.797 760.717 106.197 C 763.317 114.097 764.217 115.197 766.817 113.597 C 768.217 112.697 767.317 108.297 764.117 100.797 C 762.117 96.297 761.517 95.797 759.317 97.197 Z" fill="#000000" stroke="none"/>
    <path d="M 788.117 98.797 C 788.117 101.497 785.117 110.597 782.617 115.297 L 781.017 118.597 L 763.517 118.197 L 746.117 117.897 L 746.117 120.397 L 746.117 122.897 L 775.617 122.897 L 805.117 122.897 L 805.117 120.297 L 805.117 117.797 L 796.117 118.197 C 789.917 118.497 787.117 118.297 787.117 117.497 C 787.117 116.897 788.917 112.497 791.117 107.797 C 793.317 102.997 795.017 98.997 794.917 98.897 C 794.717 98.797 793.117 98.197 791.417 97.597 C 788.317 96.597 788.117 96.697 788.117 98.797 Z" fill="#000000" stroke="none"/>
    <path d="M -363.883 104.897 C -363.883 107.497 -343.583 143.797 -339.283 148.997 L -336.883 151.897 L -338.983 146.397 C -340.083 143.397 -343.083 135.697 -345.683 129.397 C -348.883 121.297 -350.283 116.397 -350.283 112.897 C -350.383 107.497 -350.983 107.897 -342.883 107.497 C -340.983 107.397 -340.683 107.097 -341.883 106.497 C -343.883 105.297 -363.883 103.897 -363.883 104.897 Z" stroke="none" style="fill: rgb(141, 0, 0);"/>
    <path d="M -112.183 106.097 C -112.583 106.397 -111.483 107.497 -109.883 108.497 C -105.983 110.897 -106.083 112.997 -110.283 122.397 C -112.183 126.497 -115.583 134.097 -117.883 139.197 C -123.183 150.997 -122.783 154.497 -117.183 144.897 C -111.283 134.797 -96.883 107.497 -96.883 106.397 C -96.883 105.297 -111.183 104.997 -112.183 106.097 Z" stroke="none" style="fill: rgb(141, 0, 0);"/>
    <path d="M 406.117 115.197 L 406.117 117.997 L 425.017 117.597 C 444.117 117.097 455.617 117.797 454.617 119.397 C 454.317 119.897 450.917 122.397 447.017 124.997 C 441.217 128.797 439.517 129.497 436.917 128.997 L 433.917 128.397 L 434.617 134.397 L 435.317 140.397 L 410.217 140.397 L 385.117 140.397 L 385.117 143.197 L 385.117 146.097 L 409.917 145.997 L 434.617 145.897 L 434.917 156.997 C 435.017 163.097 434.717 169.297 434.117 170.797 C 433.117 173.497 433.017 173.497 425.117 173.197 C 420.717 172.997 417.117 172.997 417.117 173.197 C 417.117 173.397 417.817 174.797 418.617 176.397 C 420.017 178.997 420.717 179.397 424.417 179.397 C 430.117 179.297 437.017 177.897 438.417 176.497 C 439.217 175.697 439.817 169.897 440.117 160.597 L 440.617 145.897 L 464.917 145.997 L 489.117 145.997 L 489.117 143.197 L 489.117 140.397 L 464.617 140.397 L 440.117 140.397 L 440.117 137.397 C 440.117 134.897 440.817 133.897 443.917 132.097 C 445.917 130.897 451.117 127.597 455.417 124.697 C 459.717 121.797 463.617 119.397 464.117 119.397 C 465.617 119.397 465.317 117.097 463.517 114.597 C 462.017 112.397 461.817 112.397 434.017 112.397 L 406.117 112.397 L 406.117 115.197 Z" fill="#000000" stroke="none"/>
    <path d="M 646.117 115.197 L 646.117 117.997 L 665.017 117.597 C 684.117 117.097 695.617 117.797 694.617 119.397 C 694.317 119.897 690.917 122.397 687.017 124.997 C 681.217 128.797 679.517 129.497 676.917 128.997 L 673.917 128.397 L 674.617 134.397 L 675.317 140.397 L 650.217 140.397 L 625.117 140.397 L 625.117 143.197 L 625.117 146.097 L 649.917 145.997 L 674.617 145.897 L 674.917 156.997 C 675.017 163.097 674.717 169.297 674.117 170.797 C 673.117 173.497 673.017 173.497 665.117 173.197 C 660.717 172.997 657.117 172.997 657.117 173.197 C 657.117 173.397 657.817 174.797 658.617 176.397 C 660.017 178.997 660.717 179.397 664.417 179.397 C 670.117 179.297 677.017 177.897 678.417 176.497 C 679.217 175.697 679.817 169.897 680.117 160.597 L 680.617 145.897 L 704.917 145.997 L 729.117 145.997 L 729.117 143.197 L 729.117 140.397 L 704.617 140.397 L 680.117 140.397 L 680.117 137.397 C 680.117 134.897 680.817 133.897 683.917 132.097 C 685.917 130.897 691.117 127.597 695.417 124.697 C 699.717 121.797 703.617 119.397 704.117 119.397 C 705.617 119.397 705.317 117.097 703.517 114.597 C 702.017 112.397 701.817 112.397 674.017 112.397 L 646.117 112.397 L 646.117 115.197 Z" fill="#000000" stroke="none"/>
    <path d="M -285.983 125.897 C -290.583 128.397 -292.183 133.497 -291.583 143.797 C -291.383 148.797 -290.383 156.197 -289.383 160.197 C -287.283 169.397 -286.483 169.797 -270.783 169.097 C -258.483 168.597 -254.883 167.497 -254.883 164.497 C -254.883 161.997 -256.783 161.397 -265.283 161.397 C -272.883 161.397 -276.683 159.897 -275.583 157.197 C -274.983 155.397 -267.783 153.397 -262.183 153.397 C -257.483 153.397 -255.583 152.197 -256.083 149.797 C -256.283 148.597 -257.683 147.697 -259.883 147.297 C -261.783 146.897 -265.983 146.097 -269.083 145.397 C -278.983 143.397 -277.983 141.297 -266.383 139.297 C -253.483 137.097 -251.583 133.197 -262.683 131.897 C -271.183 130.897 -275.083 129.697 -278.883 126.897 C -282.783 123.997 -282.583 123.997 -285.983 125.897 Z" stroke="none" style="fill: rgb(141, 0, 0);"/>
    <path d="M -172.883 125.097 C -173.683 125.397 -175.583 126.697 -176.983 127.997 C -180.183 131.097 -184.783 132.397 -191.983 132.397 C -195.383 132.397 -198.283 132.997 -199.483 133.897 C -201.383 135.397 -201.383 135.397 -199.483 136.897 C -198.383 137.697 -195.683 138.397 -193.483 138.397 C -187.883 138.497 -181.783 139.997 -180.783 141.597 C -179.283 143.897 -182.783 146.397 -187.783 146.497 C -196.383 146.597 -200.183 147.697 -200.383 150.097 C -200.483 151.997 -199.883 152.497 -196.983 152.897 C -194.983 153.197 -190.983 153.797 -187.983 154.397 C -177.883 156.197 -178.583 158.897 -189.483 160.497 C -199.183 161.997 -201.283 162.697 -201.683 164.697 C -202.483 168.597 -200.483 169.197 -187.083 168.897 C -172.583 168.597 -167.383 167.097 -166.283 162.997 C -165.983 161.697 -165.883 153.097 -166.083 143.897 C -166.383 128.797 -166.583 127.097 -168.283 125.797 C -170.383 124.297 -170.583 124.297 -172.883 125.097 Z" stroke="none" style="fill: rgb(141, 0, 0);"/>
    <path d="M -219.783 128.597 C -223.883 130.597 -224.583 130.697 -229.783 129.497 C -238.583 127.397 -242.883 126.997 -242.883 128.297 C -242.883 128.997 -242.183 130.897 -241.283 132.497 C -240.083 134.897 -239.983 136.197 -240.783 138.597 C -242.183 142.497 -242.183 146.397 -240.883 146.397 C -240.283 146.397 -237.483 145.197 -234.683 143.797 C -229.583 141.197 -229.383 141.197 -224.383 142.797 C -218.883 144.497 -211.883 144.997 -211.883 143.597 C -211.883 143.197 -212.983 141.297 -214.383 139.397 L -216.783 136.097 L -213.883 132.697 C -210.483 128.897 -210.183 127.897 -212.483 126.997 C -214.783 126.097 -214.883 126.197 -219.783 128.597 Z" stroke="none" style="fill: rgb(141, 0, 0);"/>
    <path d="M 65.117 155.897 L 65.117 180.397 L 67.617 180.397 C 69.817 180.397 70.117 179.997 70.117 176.897 L 70.117 173.397 L 95.617 173.397 L 121.117 173.397 L 121.117 176.397 C 121.117 178.897 121.517 179.397 123.617 179.397 L 126.117 179.397 L 126.117 155.397 L 126.117 131.397 L 95.617 131.397 L 65.117 131.397 L 65.117 155.897 Z M 92.117 142.897 L 92.117 149.397 L 81.117 149.397 L 70.117 149.397 L 70.117 142.897 L 70.117 136.397 L 81.117 136.397 L 92.117 136.397 L 92.117 142.897 Z M 121.117 142.897 L 121.117 149.397 L 109.117 149.397 L 97.117 149.397 L 97.117 142.897 L 97.117 136.397 L 109.117 136.397 L 121.117 136.397 L 121.117 142.897 Z M 92.117 161.897 L 92.117 169.397 L 81.117 169.397 L 70.117 169.397 L 70.117 161.897 L 70.117 154.397 L 81.117 154.397 L 92.117 154.397 L 92.117 161.897 Z M 121.117 161.897 L 121.117 169.497 L 109.417 169.197 L 97.617 168.897 L 97.317 161.597 L 97.017 154.397 L 109.117 154.397 L 121.117 154.397 L 121.117 161.897 Z" fill="#000000" stroke="none"/>
    <path d="M 755.117 157.897 L 755.117 179.397 L 757.617 179.397 C 759.917 179.397 760.117 178.997 760.117 175.397 L 760.117 171.297 L 775.917 171.597 L 791.617 171.897 L 791.917 175.597 C 792.217 178.897 792.617 179.397 794.717 179.397 L 797.117 179.397 L 797.117 157.897 L 797.117 136.397 L 776.117 136.397 L 755.117 136.397 L 755.117 157.897 Z M 791.917 154.097 L 792.217 166.397 L 776.117 166.397 L 760.117 166.397 L 760.117 153.897 L 760.117 141.297 L 775.917 141.597 L 791.617 141.897 L 791.917 154.097 Z" fill="#000000" stroke="none"/>
    <path d="M -365.283 160.097 C -356.583 176.197 -351.883 185.797 -351.883 187.497 C -351.883 189.597 -355.683 191.097 -362.783 191.797 C -365.783 192.097 -368.683 192.797 -369.183 193.297 C -370.583 194.697 -366.383 201.597 -354.783 216.897 C -337.283 240.097 -336.983 240.197 -347.483 219.097 C -352.683 208.797 -356.883 199.597 -356.883 198.697 C -356.883 197.697 -355.483 195.497 -353.783 193.797 C -349.083 188.997 -348.883 183.397 -352.783 171.597 C -356.483 160.697 -356.683 157.097 -353.783 155.097 C -351.883 153.697 -352.183 153.597 -358.183 152.497 C -361.683 151.897 -365.783 151.397 -367.283 151.397 L -370.083 151.397 L -365.283 160.097 Z" stroke="none" style="fill: rgb(141, 0, 0);"/>
    <path d="M -103.883 152.497 C -112.583 153.497 -114.783 154.197 -109.883 154.297 C -103.383 154.497 -103.183 155.197 -105.683 165.097 C -106.883 169.897 -108.883 177.297 -110.283 181.597 L -112.683 189.197 L -106.783 193.497 L -100.883 197.697 L -103.783 202.797 C -110.183 214.297 -122.083 237.497 -121.683 237.897 C -121.283 238.397 -95.183 204.097 -91.383 198.097 L -89.683 195.397 L -93.283 193.897 C -95.183 193.097 -97.483 192.397 -98.383 192.397 C -99.283 192.397 -101.483 191.697 -103.383 190.997 C -108.683 188.797 -108.183 185.497 -99.883 168.397 C -96.083 160.397 -92.883 153.297 -92.883 152.597 C -92.883 151.297 -93.083 151.297 -103.883 152.497 Z" stroke="none" style="fill: rgb(141, 0, 0);"/>
    <path d="M -239.883 153.397 C -241.083 154.197 -240.983 154.797 -238.983 157.497 C -236.683 160.597 -236.683 160.797 -238.483 161.997 C -242.183 164.597 -242.983 165.597 -242.683 167.197 C -242.183 169.797 -237.383 169.797 -233.383 167.397 C -229.983 165.297 -229.683 165.297 -224.483 166.797 C -218.283 168.597 -213.283 168.897 -212.383 167.397 C -211.983 166.797 -212.883 164.997 -214.383 163.297 C -217.083 159.997 -217.083 159.897 -212.483 154.597 L -210.583 152.397 L -224.483 152.397 C -232.083 152.397 -239.083 152.897 -239.883 153.397 Z" stroke="none" style="fill: rgb(141, 0, 0);"/>
    <path d="M -284.883 175.297 C -286.283 175.697 -287.883 177.097 -288.583 178.397 C -289.883 181.297 -290.383 194.397 -290.083 217.897 C -289.883 234.797 -289.883 234.997 -287.583 235.197 C -282.883 235.597 -281.583 235.497 -280.583 234.497 C -279.983 233.897 -278.783 222.797 -277.783 209.797 C -276.883 196.797 -275.583 185.697 -275.083 185.197 C -274.483 184.597 -258.283 184.297 -230.183 184.597 C -191.183 184.897 -185.983 185.097 -183.683 186.597 C -181.383 188.097 -181.083 188.997 -180.483 198.097 C -179.883 205.997 -178.983 225.697 -178.883 233.397 C -178.883 234.797 -174.183 238.397 -172.483 238.397 C -172.183 238.397 -170.983 236.597 -169.883 234.397 C -167.083 228.797 -165.783 218.397 -165.783 199.597 C -165.783 180.797 -166.483 178.397 -171.883 177.197 C -181.783 175.097 -278.283 173.497 -284.883 175.297 Z" stroke="none" style="fill: rgb(141, 0, 0);"/>
    <path d="M -268.883 197.897 L -268.883 206.397 L -254.083 206.397 C -238.283 206.397 -234.883 206.897 -234.883 208.997 C -234.883 210.597 -240.883 212.397 -246.883 212.397 C -254.883 212.497 -266.183 214.297 -268.683 215.997 C -270.983 217.497 -270.983 217.697 -269.483 219.197 C -268.083 220.597 -264.883 220.997 -252.483 221.397 C -241.183 221.797 -236.683 222.297 -235.383 223.397 C -233.783 224.697 -233.783 224.897 -235.883 226.597 C -237.683 228.097 -240.083 228.397 -249.283 228.497 C -262.983 228.597 -269.283 229.997 -269.683 233.097 C -269.983 234.997 -269.383 235.397 -265.383 235.997 C -262.783 236.297 -253.383 236.397 -244.583 236.097 C -227.183 235.597 -220.083 234.097 -220.683 230.997 C -220.883 230.097 -220.483 229.397 -219.883 229.397 C -219.383 229.397 -218.883 228.297 -218.883 226.897 C -218.883 223.697 -215.783 222.397 -208.283 222.397 C -201.183 222.397 -199.183 223.497 -197.883 228.297 C -196.483 233.597 -193.183 237.597 -190.483 237.197 C -187.883 236.797 -187.183 233.797 -186.983 222.097 L -186.883 213.397 L -199.083 213.397 C -213.683 213.397 -218.883 212.697 -218.883 210.697 C -218.883 208.397 -214.483 207.497 -200.083 206.697 L -186.383 205.897 L -186.083 198.297 L -185.783 190.697 L -212.983 190.097 C -227.983 189.697 -246.683 189.397 -254.583 189.397 L -268.883 189.397 L -268.883 197.897 Z M -198.683 197.197 C -196.583 199.297 -203.083 199.897 -229.083 199.897 C -247.683 199.897 -255.083 199.597 -255.983 198.697 C -258.483 196.197 -250.383 195.597 -222.083 195.797 C -207.183 195.997 -199.483 196.397 -198.683 197.197 Z" stroke="none" style="fill: rgb(141, 0, 0);"/>
    <path d="M -366.483 246.297 C -360.883 251.997 -354.483 255.697 -347.383 257.497 C -344.583 258.097 -341.883 259.097 -341.283 259.497 C -340.683 259.997 -339.983 260.097 -339.583 259.797 C -339.283 259.497 -333.483 259.697 -326.683 260.297 C -319.883 260.897 -309.883 261.697 -304.383 261.997 L -294.383 262.597 L -299.183 258.897 C -309.083 251.297 -316.583 249.097 -344.383 245.397 C -353.083 244.297 -362.083 242.897 -364.383 242.397 C -371.183 240.797 -371.483 241.197 -366.483 246.297 Z M -299.183 260.997 C -299.483 261.297 -300.383 261.397 -301.083 261.097 C -301.883 260.797 -301.583 260.497 -300.483 260.497 C -299.383 260.397 -298.783 260.697 -299.183 260.997 Z" stroke="none" style="fill: rgb(141, 0, 0);"/>
    <path d="M -111.883 244.497 C -117.683 245.397 -126.383 246.697 -131.183 247.297 C -138.483 248.097 -141.383 248.997 -148.083 252.597 C -159.183 258.497 -167.283 265.897 -160.583 263.997 C -159.383 263.697 -148.983 262.297 -137.583 260.897 C -115.883 258.297 -109.283 257.097 -104.583 254.697 C -101.183 252.997 -94.183 246.797 -92.783 244.197 C -91.883 242.597 -92.283 242.397 -96.583 242.497 C -99.183 242.597 -106.083 243.497 -111.883 244.497 Z" stroke="none" style="fill: rgb(141, 0, 0);"/>
    <path d="M 124.117 261.897 C 124.117 276.797 124.317 279.397 125.617 279.397 C 126.817 279.397 127.117 277.697 127.117 270.397 L 127.117 261.397 L 134.117 261.397 C 138.117 261.397 141.117 260.997 141.117 260.397 C 141.117 259.797 138.117 259.397 134.117 259.397 L 127.117 259.397 L 127.117 252.897 L 127.117 246.397 L 136.117 246.397 C 141.417 246.397 145.117 245.997 145.117 245.397 C 145.117 244.797 140.917 244.397 134.617 244.397 L 124.117 244.397 L 124.117 261.897 Z" fill="#000000" stroke="none"/>
    <path d="M 155.717 261.097 C 152.617 270.297 150.117 278.197 150.117 278.697 C 150.117 279.097 150.717 279.397 151.417 279.397 C 152.117 279.397 153.517 276.797 154.617 273.597 L 156.617 267.897 L 163.117 267.897 L 169.617 267.897 L 171.617 273.597 C 172.717 276.797 174.117 279.397 174.817 279.397 C 175.517 279.397 176.117 279.097 176.117 278.597 C 176.117 278.197 173.717 270.497 170.817 261.397 C 166.317 247.497 165.217 244.897 163.417 244.597 C 161.517 244.297 160.717 245.997 155.717 261.097 Z M 166.317 256.097 C 167.817 260.897 168.817 264.997 168.717 265.197 C 168.517 265.397 165.917 265.397 162.917 265.197 L 157.417 264.897 L 160.017 256.197 C 161.417 251.297 162.817 247.397 163.117 247.397 C 163.417 247.397 164.817 251.297 166.317 256.097 Z" fill="#000000" stroke="none"/>
    <path d="M 190.417 245.997 C 181.317 250.497 179.417 267.597 187.217 275.297 C 192.817 280.997 203.317 280.297 207.117 274.097 C 208.517 271.797 208.717 270.797 207.917 270.297 C 207.217 269.797 206.017 270.697 204.917 272.397 C 202.417 276.497 196.317 277.897 191.517 275.397 C 185.617 272.197 183.617 259.197 188.017 252.097 C 191.817 245.897 198.817 245.297 203.617 250.697 C 207.317 254.897 210.017 254.697 207.417 250.297 C 204.217 244.897 196.617 242.997 190.417 245.997 Z" fill="#000000" stroke="none"/>
    <path d="M 217.117 257.297 C 217.117 264.397 217.517 271.397 218.117 272.797 C 220.817 280.097 233.117 281.597 239.017 275.297 C 240.917 273.197 241.117 271.897 241.117 258.697 C 241.117 249.797 240.717 244.397 240.117 244.397 C 239.517 244.397 239.117 249.097 239.117 256.397 C 239.117 271.097 237.917 274.797 232.817 276.197 C 228.117 277.497 224.417 276.597 222.117 273.597 C 220.317 271.397 220.117 269.597 220.117 257.797 C 220.117 246.597 219.917 244.397 218.617 244.397 C 217.317 244.397 217.117 246.497 217.117 257.297 Z" fill="#000000" stroke="none"/>
    <path d="M 253.117 261.897 L 253.117 279.397 L 263.117 279.397 C 275.517 279.397 276.517 277.597 264.417 277.197 L 255.617 276.897 L 255.317 260.597 C 255.217 250.897 254.717 244.397 254.117 244.397 C 253.517 244.397 253.117 251.197 253.117 261.897 Z" fill="#000000" stroke="none"/>
    <path d="M 278.117 245.397 C 278.117 245.897 280.617 246.397 283.617 246.397 L 289.117 246.397 L 289.117 262.897 C 289.117 276.797 289.317 279.397 290.617 279.397 C 291.817 279.397 292.117 276.697 292.317 263.097 L 292.617 246.897 L 298.417 246.597 C 301.517 246.397 304.117 245.897 304.117 245.397 C 304.117 244.797 298.617 244.397 291.117 244.397 C 283.117 244.397 278.117 244.797 278.117 245.397 Z" fill="#000000" stroke="none"/>
    <path d="M 313.217 253.097 C 316.117 257.997 318.817 262.297 319.217 262.797 C 319.717 263.397 320.117 267.297 320.117 271.597 C 320.117 277.897 320.417 279.397 321.617 279.397 C 322.817 279.397 323.117 277.897 323.117 271.897 C 323.117 264.597 323.217 264.297 329.017 254.697 C 332.317 249.297 334.817 244.697 334.617 244.497 C 333.417 243.297 330.917 246.097 326.617 253.397 C 321.217 262.497 322.317 262.797 315.617 251.097 C 313.117 246.797 311.017 244.397 309.917 244.397 C 308.517 244.397 309.117 245.997 313.217 253.097 Z" fill="#000000" stroke="none"/>
    <path d="M 364.117 245.097 C 361.717 245.997 358.017 249.697 356.417 252.797 C 354.017 257.397 354.417 267.297 357.117 272.297 C 362.517 281.797 375.517 281.597 380.517 271.897 C 383.217 266.597 383.317 257.197 380.517 251.997 C 377.517 246.097 370.017 242.997 364.117 245.097 Z M 375.117 248.897 C 379.217 251.397 380.817 265.097 377.717 271.197 C 374.417 277.497 366.917 278.597 361.717 273.497 C 358.717 270.497 358.617 269.997 358.617 261.897 C 358.617 253.997 358.817 253.397 361.517 250.497 C 363.117 248.897 365.317 247.297 366.517 247.197 C 368.617 246.797 373.217 247.697 375.117 248.897 Z" fill="#000000" stroke="none"/>
    <path d="M 392.117 261.897 C 392.117 276.797 392.317 279.397 393.617 279.397 C 394.817 279.397 395.117 277.697 395.117 270.397 L 395.117 261.397 L 402.117 261.397 C 406.117 261.397 409.117 260.997 409.117 260.397 C 409.117 259.797 406.117 259.397 402.117 259.397 L 395.117 259.397 L 395.117 252.897 L 395.117 246.397 L 404.117 246.397 C 409.417 246.397 413.117 245.997 413.117 245.397 C 413.117 244.797 408.917 244.397 402.617 244.397 L 392.117 244.397 L 392.117 261.897 Z" fill="#000000" stroke="none"/>
    <path d="M 435.117 261.897 L 435.117 279.397 L 445.617 279.397 C 451.917 279.397 456.117 278.997 456.117 278.397 C 456.117 277.797 452.417 277.397 447.117 277.397 L 438.117 277.397 L 438.117 269.397 L 438.117 261.397 L 445.117 261.397 C 449.117 261.397 452.117 260.997 452.117 260.397 C 452.117 259.797 449.117 259.397 445.117 259.397 L 438.117 259.397 L 438.117 252.897 L 438.117 246.397 L 447.117 246.397 C 452.417 246.397 456.117 245.997 456.117 245.397 C 456.117 244.797 451.917 244.397 445.617 244.397 L 435.117 244.397 L 435.117 261.897 Z" fill="#000000" stroke="none"/>
    <path d="M 465.117 261.897 C 465.117 272.597 465.517 279.397 466.117 279.397 C 466.717 279.397 467.217 272.897 467.317 263.097 L 467.617 246.897 L 476.617 263.097 C 488.717 284.997 489.117 284.997 489.117 261.897 C 489.117 251.197 488.717 244.397 488.117 244.397 C 487.517 244.397 487.017 250.897 486.917 260.597 L 486.617 276.897 L 478.117 260.697 C 471.017 246.997 469.217 244.397 467.417 244.397 C 465.117 244.397 465.117 244.397 465.117 261.897 Z" fill="#000000" stroke="none"/>
    <path d="M 506.117 246.697 C 500.917 250.097 498.917 254.497 498.917 261.797 C 498.917 275.897 509.517 283.697 519.517 276.897 L 523.117 274.497 L 523.117 276.897 C 523.117 278.297 523.617 279.397 524.117 279.397 C 524.717 279.397 525.117 275.897 525.117 270.897 L 525.117 262.397 L 519.117 262.397 C 515.817 262.397 513.117 262.797 513.117 263.397 C 513.117 263.897 515.117 264.397 517.617 264.397 C 521.817 264.397 522.117 264.597 522.117 266.897 C 522.117 271.297 519.417 275.297 515.817 276.197 C 511.317 277.397 508.717 276.597 505.517 273.297 C 503.117 270.797 502.617 269.297 502.317 263.497 C 501.817 254.297 504.817 248.597 511.017 247.097 C 514.417 246.297 519.917 248.797 521.217 251.797 C 521.917 253.197 522.917 253.997 523.717 253.697 C 525.917 252.897 522.717 247.897 518.717 245.997 C 514.017 243.797 510.017 243.997 506.117 246.697 Z" fill="#000000" stroke="none"/>
    <path d="M 535.117 261.897 C 535.117 276.797 535.317 279.397 536.617 279.397 C 537.917 279.397 538.117 276.797 538.117 261.897 C 538.117 246.997 537.917 244.397 536.617 244.397 C 535.317 244.397 535.117 246.997 535.117 261.897 Z" fill="#000000" stroke="none"/>
    <path d="M 549.117 261.797 C 549.117 276.697 549.317 279.397 550.617 279.397 C 551.817 279.397 552.117 276.697 552.317 263.197 L 552.617 246.897 L 561.317 262.897 C 567.717 274.797 570.517 278.997 572.017 279.197 C 574.117 279.497 574.117 279.197 574.117 261.997 C 574.117 246.497 573.917 244.397 572.517 244.397 C 571.117 244.397 570.917 246.197 571.217 260.297 C 571.417 269.097 571.417 276.097 571.217 275.897 C 571.017 275.697 567.217 268.597 562.617 260.197 C 555.517 246.997 554.017 244.897 551.717 244.597 L 549.117 244.297 L 549.117 261.797 Z" fill="#000000" stroke="none"/>
    <path d="M 585.117 261.897 L 585.117 279.397 L 596.117 279.397 C 609.517 279.397 611.017 277.597 597.917 277.197 L 588.617 276.897 L 588.617 269.397 L 588.617 261.897 L 595.417 261.597 C 604.317 261.197 604.117 259.397 595.117 259.397 L 588.017 259.397 L 588.317 253.097 L 588.617 246.897 L 597.917 246.597 C 611.017 246.197 609.517 244.397 596.117 244.397 L 585.117 244.397 L 585.117 261.897 Z" fill="#000000" stroke="none"/>
    <path d="M 615.117 261.897 L 615.117 279.397 L 626.117 279.397 C 632.817 279.397 637.117 278.997 637.117 278.397 C 637.117 277.797 633.317 277.397 627.617 277.397 L 618.117 277.397 L 618.117 269.397 L 618.117 261.397 L 625.117 261.397 C 629.117 261.397 632.117 260.997 632.117 260.397 C 632.117 259.797 629.117 259.397 625.117 259.397 L 618.117 259.397 L 618.117 252.897 L 618.117 246.397 L 627.117 246.397 C 632.417 246.397 636.117 245.997 636.117 245.397 C 636.117 244.797 631.917 244.397 625.617 244.397 L 615.117 244.397 L 615.117 261.897 Z" fill="#000000" stroke="none"/>
    <path d="M 645.117 261.797 C 645.117 276.797 645.317 279.397 646.617 279.397 C 647.817 279.397 648.117 277.797 648.117 270.897 L 648.117 262.397 L 652.617 262.397 L 657.117 262.397 L 661.317 270.897 C 663.617 275.597 666.117 279.397 666.817 279.397 C 668.617 279.397 668.617 279.297 664.117 270.397 C 660.417 262.997 660.317 262.497 662.117 261.897 C 665.017 260.997 668.117 256.497 668.117 253.297 C 668.117 251.797 667.017 249.197 665.717 247.697 C 663.417 245.097 662.717 244.897 654.217 244.597 L 645.117 244.197 L 645.117 261.797 Z M 659.317 247.397 C 665.417 249.097 666.817 253.797 662.617 257.897 C 660.617 259.997 659.217 260.397 654.117 260.397 L 648.117 260.397 L 648.117 253.397 L 648.117 246.397 L 651.917 246.397 C 653.917 246.397 657.317 246.897 659.317 247.397 Z" fill="#000000" stroke="none"/>
    <path d="M 677.117 261.897 C 677.117 276.797 677.317 279.397 678.617 279.397 C 679.917 279.397 680.117 276.797 680.117 261.897 C 680.117 246.997 679.917 244.397 678.617 244.397 C 677.317 244.397 677.117 246.997 677.117 261.897 Z" fill="#000000" stroke="none"/>
    <path d="M 691.117 261.897 C 691.117 277.497 691.317 279.397 692.717 279.397 C 694.217 279.397 694.317 277.797 693.917 263.397 C 693.417 248.597 693.917 244.697 695.517 249.097 C 695.917 250.097 699.717 257.297 703.917 265.097 C 710.317 276.897 712.017 279.397 713.917 279.397 C 716.117 279.397 716.117 279.397 716.117 261.897 C 716.117 246.997 715.917 244.397 714.617 244.397 C 713.317 244.397 713.117 246.897 713.117 260.597 L 713.117 276.897 L 704.417 260.597 C 697.017 246.997 695.317 244.397 693.417 244.397 L 691.117 244.397 L 691.117 261.897 Z" fill="#000000" stroke="none"/>
    <path d="M 733.517 245.797 C 728.217 248.097 725.717 252.897 725.317 260.897 C 724.917 269.197 726.817 273.597 732.117 277.197 C 736.517 280.197 743.017 279.797 746.717 276.297 L 749.117 274.097 L 749.117 276.697 C 749.117 278.197 749.617 279.397 750.117 279.397 C 750.717 279.397 751.117 275.897 751.117 270.897 L 751.117 262.397 L 745.117 262.397 C 741.817 262.397 739.117 262.797 739.117 263.397 C 739.117 263.897 741.117 264.397 743.517 264.397 C 746.017 264.397 748.217 264.797 748.517 265.297 C 748.917 265.797 748.517 267.897 747.917 270.097 C 746.917 272.897 745.617 274.397 742.917 275.697 C 739.217 277.497 739.017 277.497 735.417 275.697 C 730.717 273.397 728.117 268.597 728.117 261.897 C 728.117 255.297 730.717 250.397 735.317 248.097 C 738.617 246.497 739.317 246.397 742.517 247.797 C 744.517 248.597 746.617 250.397 747.317 251.797 C 748.517 254.497 749.617 255.097 750.617 253.397 C 751.617 251.797 747.917 247.197 744.417 245.797 C 740.417 244.097 737.517 244.097 733.517 245.797 Z" fill="#000000" stroke="none"/>
    <path d="M -233.083 251.297 C -240.183 255.797 -241.783 260.697 -237.783 265.797 C -235.983 267.997 -234.983 268.397 -230.283 268.397 C -227.183 268.397 -223.883 267.897 -222.883 267.397 C -220.283 265.997 -219.183 259.697 -221.183 257.697 C -223.183 255.697 -226.783 256.897 -227.883 259.997 C -228.383 261.297 -229.283 262.397 -229.883 262.397 C -231.683 262.397 -230.983 257.997 -228.383 253.897 C -227.083 251.697 -225.883 249.597 -225.883 249.097 C -225.883 247.597 -228.583 248.497 -233.083 251.297 Z" stroke="none" style="fill: rgb(141, 0, 0);"/>
    <path d="M -303.183 252.097 C -302.383 254.097 -296.283 255.297 -281.583 256.297 C -266.283 257.397 -260.383 259.297 -256.483 264.697 C -254.283 267.697 -254.183 268.697 -254.683 292.397 C -254.783 298.197 -254.783 303.997 -254.683 305.397 C -254.483 307.397 -254.783 307.797 -256.383 307.497 C -261.783 306.597 -275.883 306.297 -277.383 307.097 C -280.283 308.697 -276.183 312.197 -270.183 313.397 C -264.283 314.497 -259.483 313.397 -256.683 310.397 C -254.183 307.697 -252.883 307.897 -252.883 310.797 C -252.883 313.697 -257.083 317.397 -260.483 317.397 C -264.383 317.397 -264.083 319.097 -259.883 320.797 C -255.083 322.697 -249.783 322.897 -248.083 321.197 C -246.483 319.597 -246.583 315.897 -248.383 303.397 C -249.483 296.597 -249.883 287.897 -249.683 277.897 C -249.383 262.797 -249.383 262.597 -251.883 259.897 C -254.883 256.697 -259.683 254.097 -265.883 252.297 C -272.183 250.597 -303.783 250.397 -303.183 252.097 Z" stroke="none" style="fill: rgb(141, 0, 0);"/>
    <path d="M -159.583 251.097 C -159.283 251.597 -161.783 251.697 -165.083 251.597 C -180.083 250.697 -205.683 255.297 -207.783 259.197 C -208.283 260.097 -208.983 268.297 -209.383 277.397 C -209.983 292.597 -210.583 300.097 -212.483 315.597 L -213.183 321.397 L -208.783 321.297 C -202.883 321.097 -198.483 320.097 -198.483 318.897 C -198.483 318.297 -200.283 316.897 -202.583 315.597 C -208.183 312.497 -208.783 309.697 -205.283 302.697 C -202.483 297.397 -202.483 297.197 -203.783 290.097 C -204.583 286.097 -205.383 279.697 -205.583 275.797 C -206.083 269.297 -205.883 268.597 -203.383 265.597 C -198.083 259.197 -193.383 257.897 -167.683 255.297 C -156.483 254.197 -154.383 253.397 -157.383 251.197 C -158.683 250.197 -160.083 250.197 -159.583 251.097 Z" stroke="none" style="fill: rgb(141, 0, 0);"/>
    <path d="M -346.883 262.297 L -349.383 262.997 L -346.283 266.097 C -340.683 271.797 -325.583 275.197 -298.283 276.997 C -286.983 277.697 -285.883 277.197 -288.383 272.497 C -290.483 268.297 -291.983 267.797 -303.883 266.997 C -309.683 266.697 -319.983 265.497 -326.883 264.397 C -333.783 263.297 -340.483 262.197 -341.883 261.997 C -343.283 261.797 -345.483 261.897 -346.883 262.297 Z" stroke="none" style="fill: rgb(141, 0, 0);"/>
    <path d="M -287.483 262.997 C -281.983 265.997 -273.383 268.397 -267.683 268.597 C -261.283 268.797 -259.983 268.097 -261.483 265.697 C -263.283 262.897 -268.983 261.597 -279.883 261.497 C -289.983 261.497 -290.283 261.497 -287.483 262.997 Z" stroke="none" style="fill: rgb(141, 0, 0);"/>
    <path d="M -197.383 265.397 C -199.083 267.297 -199.083 267.397 -196.283 268.497 C -194.183 269.197 -191.383 269.297 -186.383 268.497 C -179.783 267.497 -171.883 264.997 -171.883 263.897 C -171.883 263.597 -177.183 263.397 -183.683 263.397 C -194.283 263.397 -195.783 263.597 -197.383 265.397 Z" stroke="none" style="fill: rgb(141, 0, 0);"/>
    <path d="M -139.883 264.997 C -146.183 265.697 -154.983 266.997 -159.383 267.897 C -166.483 269.197 -167.783 269.797 -170.583 273.097 C -172.383 275.097 -173.883 277.197 -173.883 277.697 C -173.883 278.197 -171.683 278.397 -168.583 277.997 C -165.783 277.597 -157.783 276.897 -150.883 276.397 C -130.583 274.897 -112.883 269.197 -112.883 264.297 C -112.883 262.997 -126.183 263.397 -139.883 264.997 Z" stroke="none" style="fill: rgb(141, 0, 0);"/>
    <path d="M -283.783 272.897 C -282.783 277.497 -271.783 280.697 -262.483 278.997 C -253.683 277.297 -262.283 272.897 -276.783 271.697 C -283.483 271.097 -284.083 271.197 -283.783 272.897 Z" stroke="none" style="fill: rgb(141, 0, 0);"/>
    <path d="M -177.083 271.897 C -177.383 272.197 -182.383 272.797 -188.283 273.297 C -199.783 274.197 -202.083 275.097 -199.383 277.797 C -196.383 280.797 -180.483 279.097 -179.183 275.697 C -178.883 274.997 -178.283 274.597 -177.883 274.897 C -177.483 275.097 -176.383 274.497 -175.383 273.397 C -173.883 271.797 -173.883 271.397 -175.083 271.397 C -175.883 271.397 -176.783 271.597 -177.083 271.897 Z" stroke="none" style="fill: rgb(141, 0, 0);"/>
    <path d="M -238.483 277.097 C -238.183 279.197 -237.483 290.997 -236.983 303.197 C -236.083 325.897 -235.483 328.997 -232.383 326.397 C -231.283 325.497 -230.883 323.197 -230.883 317.997 C -230.783 307.397 -229.183 291.297 -228.083 290.197 C -227.483 289.597 -225.583 288.897 -223.783 288.497 C -219.083 287.597 -219.083 285.697 -223.683 284.397 C -225.883 283.897 -228.283 282.697 -228.983 281.797 C -230.083 280.397 -229.883 279.897 -227.983 278.397 C -226.683 277.497 -224.783 276.897 -223.783 277.097 C -222.783 277.397 -221.083 277.297 -220.183 276.897 C -219.183 276.397 -218.083 276.197 -217.583 276.197 C -217.183 276.297 -216.883 275.997 -216.883 275.497 C -216.883 274.497 -225.183 273.397 -233.283 273.397 L -239.083 273.397 L -238.483 277.097 Z" stroke="none" style="fill: rgb(141, 0, 0);"/>
    <path d="M -312.783 281.297 C -316.683 282.297 -316.383 284.297 -312.183 285.997 C -309.483 287.197 -304.583 287.697 -294.583 287.897 L -280.783 288.097 L -281.083 285.497 C -281.283 283.497 -282.283 282.597 -284.883 281.697 C -288.583 280.397 -308.683 280.097 -312.783 281.297 Z" stroke="none" style="fill: rgb(141, 0, 0);"/>
    <path d="M -170.583 282.397 C -183.583 284.997 -180.883 289.697 -166.383 289.797 C -156.783 289.897 -142.683 285.097 -144.383 282.397 C -145.083 281.197 -164.583 281.297 -170.583 282.397 Z" stroke="none" style="fill: rgb(141, 0, 0);"/>
    <path d="M -276.683 284.497 C -274.983 289.797 -260.883 292.697 -260.883 287.797 C -260.883 285.997 -263.983 284.797 -271.283 283.897 C -276.083 283.297 -277.083 283.397 -276.683 284.497 Z" stroke="none" style="fill: rgb(141, 0, 0);"/>
    <path d="M -192.183 284.397 C -198.783 286.397 -198.883 290.397 -192.383 290.397 C -188.883 290.397 -182.383 285.997 -183.483 284.297 C -184.083 283.197 -188.383 283.297 -192.183 284.397 Z" stroke="none" style="fill: rgb(141, 0, 0);"/>
    <path d="M -295.183 294.097 C -296.783 294.297 -297.883 294.997 -297.583 295.697 C -296.983 297.697 -292.483 300.297 -289.383 300.397 C -282.383 300.797 -277.283 300.197 -275.383 298.897 C -273.683 297.497 -273.583 297.197 -275.083 295.797 C -276.683 294.197 -289.483 293.097 -295.183 294.097 Z" stroke="none" style="fill: rgb(141, 0, 0);"/>
    <path d="M -181.183 294.097 C -182.683 294.297 -184.383 295.497 -184.983 296.597 C -186.883 300.197 -183.683 301.697 -175.783 300.997 C -165.883 300.097 -158.483 296.497 -161.983 294.297 C -163.383 293.397 -175.883 293.297 -181.183 294.097 Z" stroke="none" style="fill: rgb(141, 0, 0);"/>
    <path d="M -269.883 296.097 C -269.783 298.297 -266.883 300.397 -264.083 300.397 C -260.283 300.397 -258.983 298.597 -261.383 296.697 C -263.383 295.297 -269.883 294.897 -269.883 296.097 Z" stroke="none" style="fill: rgb(141, 0, 0);"/>
    <path d="M -198.783 296.697 C -200.083 298.397 -199.283 301.397 -197.383 301.397 C -194.183 301.397 -189.783 299.097 -190.083 297.497 C -190.483 295.397 -197.083 294.697 -198.783 296.697 Z" stroke="none" style="fill: rgb(141, 0, 0);"/>
    <path d="M -200.283 307.697 C -201.783 308.797 -201.983 309.397 -200.983 311.197 C -200.083 312.897 -198.883 313.397 -195.683 313.397 C -188.583 313.397 -179.883 309.997 -179.883 307.197 C -179.883 305.797 -198.283 306.197 -200.283 307.697 Z" stroke="none" style="fill: rgb(141, 0, 0);"/>
    <path d="M -224.783 318.097 C -224.783 321.497 -224.383 324.597 -223.883 324.897 C -222.083 325.997 -219.883 323.297 -219.883 319.997 C -219.883 317.697 -220.183 317.297 -220.883 318.397 C -222.083 320.397 -223.583 318.797 -224.183 314.897 C -224.383 313.197 -224.683 314.697 -224.783 318.097 Z" stroke="none" style="fill: rgb(141, 0, 0);"/>
  </g>
</svg>