<?xml version="1.0" encoding="utf-8"?>
<svg id="master-artboard" viewBox="0 0 1069 240" xmlns="http://www.w3.org/2000/svg" width="1069px" height="240px" version="1.1" style="shape-rendering:geometricPrecision; text-rendering:geometricPrecision; image-rendering:optimizeQuality; fill-rule:evenodd; clip-rule:evenodd"><rect id="ee-background" x="0" y="0" width="1069" height="240" style="fill: white; fill-opacity: 1; pointer-events: none;"/><g transform="matrix(0.14416876435279843, 0, 0, 0.14416876435279843, -15.377396754312883, -0.011223039289234293)"><g id="layer101" fill="#9e2c31" stroke="none">
 <path d="M6637 1502 c-15 -10 -24 -22 -20 -25 3 -4 -6 -7 -21 -7 -42 0 -103 -79 -124 -159 -9 -39 -8 -48 9 -73 11 -15 23 -28 26 -28 3 0 0 6 -6 14 -16 19 -3 50 15 35 17 -14 34 -3 34 20 0 40 56 64 126 54 35 -5 54 -16 100 -62 31 -31 67 -70 80 -87 28 -36 32 -69 8 -60 -9 3 -51 6 -94 6 -70 0 -80 3 -101 25 -20 21 -33 25 -82 25 -49 0 -62 -4 -83 -25 -14 -14 -29 -25 -34 -25 -6 0 -10 -13 -10 -29 0 -31 18 -41 78 -41 17 0 32 -4 32 -10 0 -12 42 -13 56 -2 12 11 234 2 234 -9 0 -5 -11 -7 -25 -3 -15 4 -25 2 -25 -5 0 -6 -11 -11 -23 -11 -13 0 -32 -9 -42 -20 -11 -12 -25 -18 -36 -15 -22 7 -59 -43 -59 -79 0 -42 42 -56 147 -51 92 5 171 17 213 33 20 8 31 6 49 -9 13 -10 27 -19 31 -19 17 0 70 53 70 70 0 25 -28 46 -42 32 -8 -8 -21 -6 -47 7 -20 11 -39 18 -42 17 -8 -2 -79 48 -79 56 0 4 49 7 109 7 96 0 232 14 251 26 4 2 6 14 5 27 -2 23 -4 23 -111 20 -140 -3 -195 4 -187 24 8 21 -15 88 -49 147 -15 26 -28 51 -28 55 0 10 -111 116 -143 136 -14 9 -38 19 -53 22 -16 2 -40 7 -54 9 -15 3 -36 -2 -53 -13z m336 -533 l42 -41 -34 6 c-18 3 -59 6 -90 6 l-56 0 35 35 c19 18 41 34 48 34 7 1 32 -17 55 -40z"/>
 <path d="M800 1403 c0 -49 -3 -105 -6 -125 l-7 -38 57 0 c36 0 55 4 51 10 -3 6 -20 10 -36 10 -35 0 -36 23 -1 28 27 4 29 22 3 22 -26 0 -31 19 -31 106 0 59 -3 74 -15 74 -12 0 -15 -16 -15 -87z"/>
 <path d="M852 1403 l2 -78 3 70 c3 48 7 65 13 55 8 -12 10 -10 10 8 0 13 -6 22 -15 22 -12 0 -15 -14 -13 -77z"/>
 <path d="M690 1458 c-24 -11 -24 -12 -3 -15 33 -6 47 -27 33 -53 -8 -15 -10 -45 -5 -90 4 -38 4 -78 0 -89 -10 -33 -57 -51 -133 -51 -44 0 -75 -5 -88 -15 -17 -13 -12 -14 56 -14 94 -1 145 11 175 39 22 20 23 28 18 91 -3 38 -1 95 6 130 10 51 10 63 -1 70 -17 11 -27 10 -58 -3z"/>
 <path d="M915 1403 c5 -32 9 -92 10 -133 0 -41 2 -81 3 -87 4 -25 58 -41 155 -45 124 -5 127 14 3 23 -65 5 -94 11 -114 26 -34 25 -37 44 -22 109 11 46 11 56 -3 78 -19 29 -14 53 14 61 32 10 21 25 -17 25 l-37 0 8 -57z"/>
 <path d="M633 1423 c-12 -2 -24 -11 -27 -19 -4 -11 6 -14 49 -14 58 0 78 13 46 29 -20 11 -29 12 -68 4z"/>
 <path d="M973 1424 c-7 -3 -13 -12 -13 -20 0 -10 15 -14 57 -14 51 0 56 2 43 15 -17 16 -68 27 -87 19z"/>
 <path d="M4189 1413 c0 -4 -1 -44 -3 -88 -4 -123 -27 -349 -35 -358 -16 -16 -304 -27 -319 -12 -3 3 0 11 6 17 7 7 12 38 12 69 0 59 7 69 51 69 16 0 17 -4 9 -26 -16 -41 -12 -61 16 -79 25 -16 26 -16 62 20 28 27 38 46 39 73 1 20 5 60 9 88 6 49 5 52 -20 58 -34 8 -43 3 -51 -34 -6 -29 -9 -30 -61 -30 -45 0 -59 4 -80 25 -30 30 -47 31 -73 4 -26 -28 -73 -18 -106 24 l-24 32 -33 -18 c-20 -11 -40 -33 -50 -55 l-16 -37 29 -12 c25 -10 51 -49 48 -71 -5 -29 3 -52 18 -52 23 0 93 50 93 66 0 16 26 19 35 5 3 -5 0 -42 -7 -81 l-12 -72 -29 6 c-16 3 -36 6 -44 6 -10 0 -12 6 -8 20 8 24 -20 38 -44 23 -12 -8 -23 -5 -44 9 l-28 20 -23 -21 c-22 -21 -51 -28 -59 -13 -3 4 -8 63 -11 132 -9 163 -18 210 -42 210 -8 0 -14 10 -14 25 0 37 -34 32 -58 -7 -19 -30 -20 -47 -17 -203 2 -120 0 -174 -8 -184 -16 -19 -14 -129 4 -169 7 -17 25 -36 39 -42 22 -9 43 -35 74 -91 8 -13 32 -17 130 -21 310 -13 601 13 665 60 18 14 40 41 48 60 13 32 13 39 -1 64 -15 25 -16 45 -5 205 6 98 9 207 6 243 -7 80 -29 144 -50 148 -10 2 -17 0 -18 -5z m-41 -529 c2 -21 -2 -57 -8 -79 -7 -22 -12 -42 -11 -45 0 -3 -12 -9 -27 -14 -33 -10 -531 -21 -567 -12 -29 7 -33 39 -10 70 8 11 15 29 15 40 0 13 11 26 27 34 38 17 45 15 33 -8 -6 -12 -10 -35 -8 -53 4 -37 16 -39 93 -10 63 23 61 21 47 35 -27 27 -13 38 52 38 70 0 99 -17 71 -40 -9 -7 -15 -29 -15 -51 0 -32 4 -39 19 -39 32 0 115 64 134 103 16 32 24 37 52 37 18 0 43 9 56 20 33 26 43 20 47 -26z"/>
 <path d="M5511 1309 c-58 -60 -125 -137 -150 -172 -76 -104 -114 -147 -127 -147 -8 0 -28 22 -46 48 -18 27 -72 86 -119 130 -85 80 -88 82 -137 82 -28 0 -63 5 -77 12 -24 11 -29 8 -63 -25 -36 -37 -37 -39 -37 -117 0 -54 4 -83 14 -92 11 -10 14 -10 18 0 3 6 15 12 28 12 13 0 25 5 27 11 3 8 22 10 63 4 56 -7 64 -11 121 -69 34 -33 65 -72 69 -85 7 -22 5 -23 -21 -17 -16 4 -37 18 -47 32 -10 13 -24 24 -30 24 -6 0 -21 9 -33 21 -21 19 -24 20 -52 5 -17 -9 -40 -16 -50 -16 -10 0 -33 -5 -50 -11 -43 -15 -75 -84 -64 -137 7 -33 12 -37 52 -47 29 -7 46 -17 48 -28 5 -22 24 -21 73 3 23 12 48 18 60 15 10 -4 32 -7 47 -7 25 -1 28 -4 24 -29 -6 -38 29 -152 41 -140 6 6 23 7 38 4 42 -8 115 38 124 77 4 17 19 43 33 59 22 22 37 28 77 30 187 8 356 33 375 56 17 20 37 94 29 106 -6 10 -28 10 -111 1 -57 -6 -139 -14 -183 -17 -44 -3 -97 -8 -117 -10 -67 -9 -66 -8 145 190 199 186 287 221 394 158 25 -15 44 -22 42 -16 -9 26 -132 143 -150 143 -10 0 -19 5 -19 10 0 6 -7 10 -16 10 -8 0 -12 5 -9 10 3 6 0 10 -7 11 -31 1 -63 10 -72 19 -24 24 -55 5 -155 -101z"/>
 <path d="M524 1353 c-17 -17 -15 -18 36 -21 56 -3 87 11 60 28 -24 16 -77 11 -96 -7z"/>
 <path d="M650 1355 c-11 -13 -8 -15 13 -15 30 0 44 15 21 24 -21 8 -20 8 -34 -9z"/>
 <path d="M970 1355 c0 -9 9 -15 25 -15 28 0 34 15 9 24 -25 10 -34 7 -34 -9z"/>
 <path d="M1037 1364 c-3 -3 -3 -12 0 -20 6 -16 113 -20 113 -4 0 22 -94 43 -113 24z"/>
 <path d="M2433 1352 c-42 -26 -103 -180 -75 -190 18 -6 16 -172 -2 -198 -10 -13 -13 -34 -10 -64 5 -41 4 -43 -10 -26 -13 15 -27 18 -93 16 -43 -2 -90 -3 -104 -2 l-26 2 4 83 c2 45 0 134 -5 198 -7 96 -12 121 -31 148 -13 18 -26 30 -29 27 -5 -6 -24 -111 -23 -131 0 -5 5 -36 10 -68 7 -44 6 -70 -5 -105 -7 -26 -14 -55 -14 -65 0 -18 -65 -87 -81 -87 -5 0 -13 8 -18 19 -16 28 -42 34 -57 13 -9 -14 -31 -21 -75 -26 -69 -7 -85 -20 -65 -51 10 -15 56 -47 73 -50 1 -1 -9 -24 -22 -52 -20 -40 -23 -57 -16 -76 5 -14 7 -28 4 -31 -4 -3 5 -6 18 -6 13 0 30 -4 38 -9 12 -8 13 -12 1 -25 -21 -26 -6 -29 37 -7 31 17 64 22 178 26 113 4 313 29 269 34 -6 0 -10 11 -10 23 1 14 -8 27 -24 35 -14 7 -19 13 -10 13 11 1 10 4 -4 15 -13 10 -45 15 -95 15 -135 0 -131 34 4 45 44 4 100 11 124 16 50 11 68 2 53 -27 -5 -11 -12 -37 -15 -60 -10 -60 5 -74 83 -78 63 -3 66 -4 92 -42 54 -79 121 -87 154 -17 18 37 13 49 -25 55 -14 1 -26 8 -28 14 -3 8 28 14 89 19 51 5 107 10 123 12 56 7 129 3 163 -8 18 -6 36 -9 39 -6 9 10 -61 86 -91 98 -22 10 -58 9 -176 -5 -156 -19 -253 -16 -300 10 -22 12 -23 13 -5 14 11 0 92 1 180 3 103 1 168 7 182 15 36 20 53 42 53 68 0 20 -5 24 -29 24 -20 0 -32 6 -36 19 -6 20 -47 51 -74 56 -9 2 -58 4 -108 4 -138 1 -113 18 30 20 148 1 267 18 285 40 49 61 51 89 9 108 -15 7 -30 29 -41 59 -9 27 -27 68 -39 92 -25 48 -9 46 -156 21 -59 -10 -76 -10 -79 -1 -8 25 -31 39 -56 35 -14 -3 -26 -9 -26 -13 0 -4 -15 -10 -32 -14 -26 -5 -36 -2 -48 14 -9 11 -20 16 -27 12z m177 -137 c0 -32 -20 -32 -43 0 l-18 25 31 0 c25 0 30 -4 30 -25z m170 0 c0 -23 -3 -25 -49 -25 -44 0 -49 2 -53 25 -5 24 -3 25 48 25 51 0 54 -1 54 -25z m35 -105 c10 -30 0 -37 -61 -43 -75 -8 -85 -3 -71 34 11 27 14 29 69 29 48 0 58 -3 63 -20z m-222 -11 c10 -38 -57 -38 -81 1 -12 19 -10 20 32 20 36 0 45 -4 49 -21z m142 -209 l16 -30 -38 -2 c-69 -3 -178 4 -202 13 -19 8 -21 12 -11 24 9 10 40 15 113 18 56 1 103 4 104 5 1 1 9 -11 18 -28z"/>
 <path d="M625 1304 c-20 -21 -18 -22 28 -16 23 2 37 10 37 18 0 19 -45 18 -65 -2z"/>
 <path d="M980 1306 c0 -8 14 -16 33 -19 39 -6 44 -2 27 18 -16 19 -60 20 -60 1z"/>
 <path d="M1081 1312 c-22 -7 -23 -8 -6 -22 12 -10 42 -15 91 -15 69 0 73 1 56 17 -19 19 -104 31 -141 20z"/>
 <path d="M448 1299 c-35 -20 -17 -29 61 -29 75 0 91 6 91 36 0 9 -136 3 -152 -7z"/>
 <path d="M603 1260 c-13 -5 -23 -15 -23 -23 0 -11 11 -12 60 -4 39 6 60 14 60 23 0 16 -61 18 -97 4z"/>
 <path d="M966 1255 c-4 -11 2 -15 28 -15 18 0 49 -3 67 -6 l34 -5 -24 20 c-28 25 -96 29 -105 6z"/>
 <path d="M435 1250 c-76 -7 -136 -27 -150 -51 -12 -18 0 -19 86 -4 46 8 105 15 131 15 37 0 50 4 58 19 18 35 24 34 -125 21z"/>
 <path d="M1101 1239 c14 -21 28 -25 120 -36 136 -15 162 -16 153 -2 -16 26 -96 50 -191 56 l-98 6 16 -24z"/>
 <path d="M1840 1228 c-11 -18 -18 -39 -15 -47 6 -15 -13 -43 -25 -36 -4 3 -8 -16 -8 -41 -1 -52 15 -65 55 -43 22 12 26 11 44 -11 10 -14 19 -37 19 -51 0 -14 11 -36 25 -49 36 -34 52 -15 54 66 1 55 -4 78 -35 147 -20 45 -41 85 -47 89 -24 16 -48 7 -67 -24z"/>
 <path d="M585 1202 l-40 -18 54 -2 c54 -1 91 10 91 28 0 16 -62 11 -105 -8z"/>
 <path d="M791 1201 c-14 -25 -6 -45 24 -65 37 -24 49 -19 26 10 -11 15 -18 31 -14 38 5 7 9 5 11 -6 2 -10 12 -18 23 -18 16 0 20 6 17 28 -3 23 -8 27 -40 30 -28 2 -39 -1 -47 -17z"/>
 <path d="M976 1205 c5 -11 22 -15 73 -14 64 1 65 1 36 14 -16 8 -49 14 -72 15 -34 0 -41 -3 -37 -15z"/>
 <path d="M1140 1193 c1 -15 97 -73 122 -73 14 0 65 -7 113 -15 48 -9 90 -13 93 -10 8 8 -29 45 -62 62 -15 8 -74 19 -130 24 -55 5 -109 12 -118 15 -10 3 -18 2 -18 -3z"/>
 <path d="M375 1180 c-96 -7 -135 -22 -175 -65 l-25 -28 29 7 c17 4 68 12 115 17 107 12 151 25 187 55 l29 23 -35 -1 c-19 0 -75 -4 -125 -8z"/>
 <path d="M2215 1116 c-19 -30 -40 -66 -47 -80 -6 -15 -17 -26 -24 -26 -19 0 -24 -72 -6 -92 20 -24 36 -23 65 5 29 26 39 45 78 140 33 83 35 93 13 101 -32 12 -45 5 -79 -48z"/>
 <path d="M257 984 c-44 -57 -76 -108 -72 -114 3 -5 22 -10 41 -10 20 0 37 -6 40 -13 3 -8 -15 -49 -40 -93 -24 -43 -43 -80 -42 -82 2 -1 27 2 57 7 30 5 44 9 32 10 -28 1 -30 25 -8 78 21 50 19 89 -6 107 -21 14 -21 15 30 112 27 54 49 99 48 100 -1 1 -37 -45 -80 -102z"/>
 <path d="M1371 992 l54 -103 -27 -20 -26 -19 23 -75 c12 -41 20 -77 17 -80 -3 -3 -19 -6 -36 -6 -17 -1 -4 -5 29 -9 33 -3 61 -6 63 -4 2 1 -15 39 -38 84 -45 90 -45 94 18 106 17 3 32 10 32 14 0 6 -143 197 -158 210 -3 3 19 -41 49 -98z"/>
 <path d="M997 1067 c-8 -7 -17 -23 -19 -37 -3 -22 -8 -25 -48 -25 -41 0 -45 2 -48 26 -4 31 -33 39 -153 39 -81 0 -96 -5 -78 -27 8 -9 36 -13 85 -13 59 0 74 -3 74 -15 0 -12 -15 -15 -79 -15 -44 0 -82 -4 -85 -8 -12 -20 15 -31 83 -34 48 -2 76 -7 79 -15 3 -10 -17 -13 -77 -13 l-81 0 0 -40 0 -40 193 2 192 3 3 37 3 37 -77 3 c-51 2 -79 7 -82 16 -3 9 16 12 72 12 l76 0 0 54 c0 59 -8 72 -33 53z m-17 -177 c0 -6 -51 -10 -134 -10 -79 0 -137 4 -141 10 -4 6 43 10 134 10 87 0 141 -4 141 -10z"/>
 <path d="M1078 1069 c-15 -8 -18 -25 -18 -109 0 -54 -3 -105 -6 -114 -5 -14 -34 -16 -219 -16 l-213 0 -6 63 c-4 34 -7 87 -9 117 -2 51 -4 55 -27 55 l-25 0 -3 -129 c-2 -92 1 -132 10 -144 11 -13 48 -14 282 -10 212 4 270 8 277 19 16 25 11 217 -6 249 -9 17 -17 30 -18 30 -1 0 -10 -5 -19 -11z"/>
 <path d="M6306 1054 c-23 -22 -20 -42 15 -120 39 -86 85 -154 105 -154 8 0 26 7 39 16 14 9 25 12 25 6 0 -5 -10 -12 -21 -15 -20 -5 -21 -11 -16 -50 7 -50 1 -60 -55 -102 -21 -15 -38 -34 -38 -41 0 -33 65 -83 142 -108 89 -30 123 -32 167 -10 28 14 39 14 77 4 24 -7 44 -14 44 -16 0 -1 -4 -14 -10 -29 -9 -22 -7 -27 15 -35 32 -12 60 3 76 41 9 24 17 28 67 31 52 3 60 1 84 -24 31 -33 29 -33 99 -12 112 33 179 87 179 144 0 14 -5 18 -17 13 -10 -4 -21 -11 -26 -17 -5 -7 -13 -4 -23 9 -22 28 -64 124 -64 146 0 11 -5 19 -12 19 -19 0 0 13 40 27 49 17 52 16 52 -6 0 -10 7 -22 16 -25 33 -13 59 27 99 149 30 93 31 115 6 146 -22 27 -20 31 -47 -96 -11 -56 -24 -88 -42 -108 l-26 -27 -286 5 c-158 2 -295 8 -306 12 -10 4 -19 15 -19 23 0 9 -11 16 -30 18 -36 4 -66 28 -58 47 7 19 -42 66 -60 59 -11 -4 -19 6 -27 31 -12 35 -13 36 -51 30 -35 -6 -39 -5 -39 14 0 17 -6 21 -29 21 -16 0 -37 -7 -45 -16z m594 -311 c0 -5 -9 -21 -19 -36 l-18 -28 -22 27 c-29 37 -27 44 19 44 22 0 40 -3 40 -7z m217 -10 c4 -12 -11 -19 -61 -27 -28 -5 -66 -32 -66 -47 0 -5 11 -11 25 -15 29 -7 30 -10 9 -31 -9 -10 -13 -25 -10 -39 3 -12 1 -26 -4 -29 -16 -10 -40 15 -40 41 0 22 -10 29 -34 25 -13 -3 -36 20 -36 35 0 21 68 92 93 97 41 9 120 2 124 -10z m-308 -78 l19 -33 -28 -27 -28 -26 -27 25 c-15 14 -33 26 -38 26 -6 0 -1 9 11 20 23 22 29 40 12 40 -6 0 -6 7 2 19 11 17 14 18 34 4 13 -8 32 -30 43 -48z m344 6 c4 -15 -2 -20 -32 -24 -20 -3 -44 -8 -53 -12 -36 -15 -16 11 25 32 53 27 54 27 60 4z m-584 -42 c-8 -5 -27 -9 -42 -9 -16 0 -26 -4 -22 -10 3 -5 -2 -10 -13 -10 -14 0 -19 6 -17 23 1 12 3 22 4 22 50 0 101 -9 90 -16z m81 1 c11 -7 5 -10 -22 -10 -21 0 -38 5 -38 10 0 13 40 13 60 0z m230 -61 c8 -14 7 -19 -2 -19 -24 0 -41 18 -35 35 8 19 22 13 37 -16z m309 9 c10 -27 -5 -36 -56 -37 -47 -1 -46 21 1 41 23 9 42 17 44 17 1 1 6 -9 11 -21z"/>
 <path d="M561 738 c-4 -13 -11 -50 -15 -83 -5 -47 -3 -65 9 -82 19 -26 37 -29 55 -9 6 8 33 16 58 18 34 2 47 7 47 18 0 11 -14 16 -48 20 -26 3 -47 10 -47 15 0 6 21 12 47 15 34 4 48 9 48 20 0 11 -13 16 -47 18 -34 2 -48 7 -48 18 0 10 13 14 51 14 43 0 50 3 47 18 -3 14 -16 18 -76 20 -67 3 -73 1 -81 -20z"/>
 <path d="M770 746 c0 -8 8 -17 17 -20 12 -5 14 -9 5 -18 -25 -25 -11 -33 55 -31 38 1 70 2 72 2 2 1 -3 9 -13 20 -15 16 -15 19 -1 31 26 22 2 34 -40 20 -27 -9 -40 -9 -48 -1 -16 16 -47 14 -47 -3z"/>
 <path d="M960 741 c0 -17 8 -20 47 -23 64 -4 69 -26 6 -30 -35 -2 -48 -7 -48 -18 0 -11 13 -16 48 -18 32 -2 47 -8 47 -17 0 -9 -15 -15 -47 -17 -35 -2 -48 -7 -48 -18 0 -11 12 -15 48 -15 35 0 52 -5 61 -17 16 -22 42 -23 50 -2 3 9 6 51 6 95 0 76 -1 80 -26 89 -14 6 -52 10 -85 10 -52 0 -59 -2 -59 -19z"/>
 <path d="M303 632 c-33 -51 -96 -173 -91 -176 2 -1 32 1 68 4 54 6 61 16 8 12 -26 -2 -22 22 17 117 19 47 34 86 32 87 -2 2 -17 -18 -34 -44z"/>
 <path d="M1330 666 c0 -9 16 -48 35 -86 49 -96 45 -113 -21 -104 -24 4 -26 3 -9 -5 21 -10 115 -15 115 -6 0 5 -109 206 -116 214 -2 2 -4 -3 -4 -13z"/>
 <path d="M775 650 c-3 -5 -2 -18 4 -28 6 -11 6 -24 -1 -36 -15 -26 -3 -31 42 -16 31 10 43 11 52 2 14 -14 48 -16 48 -3 0 5 -7 14 -15 21 -14 12 -14 15 0 30 23 25 3 34 -39 19 -29 -11 -38 -10 -60 4 -15 10 -27 13 -31 7z"/>
 <path d="M563 523 c-16 -6 -18 -126 -2 -155 10 -19 17 -20 79 -14 37 4 91 4 118 0 45 -6 51 -9 54 -33 2 -20 8 -26 28 -26 20 0 26 6 28 26 3 25 7 26 79 33 42 3 97 6 123 6 55 0 60 6 60 84 0 100 -56 122 -62 24 l-3 -53 -50 0 -50 0 -3 53 c-2 35 -8 55 -18 59 -24 9 -44 -17 -44 -57 0 -61 -7 -70 -54 -70 -57 0 -65 8 -63 62 2 53 -11 73 -42 63 -17 -5 -21 -14 -21 -50 0 -65 -7 -75 -49 -75 -52 0 -59 9 -63 70 -3 55 -13 67 -45 53z"/>
 <path d="M1290 399 c-16 -61 -41 -141 -51 -161 -8 -15 -13 -15 -71 3 -94 28 -92 23 11 -31 52 -28 95 -49 97 -47 5 4 33 272 29 276 -2 1 -9 -17 -15 -40z"/>
 <path d="M368 297 c8 -72 15 -133 16 -135 2 -1 47 18 100 44 104 48 122 67 37 39 -85 -28 -92 -23 -126 82 -16 50 -33 94 -36 97 -3 3 1 -54 9 -127z"/>
 <path d="M730 155 c52 -52 99 -95 105 -95 6 0 53 43 105 95 52 52 90 95 85 95 -6 0 -30 -14 -55 -31 -25 -16 -66 -41 -91 -54 l-47 -24 -92 54 c-51 30 -95 55 -98 55 -4 0 36 -43 88 -95z"/>
 </g><g id="layer102" fill="#b76b5a" stroke="none">
 <path d="M801 1473 c0 -13 2 -14 6 -4 5 11 7 11 14 0 7 -11 9 -10 9 4 0 9 -7 17 -15 17 -8 0 -15 -8 -14 -17z"/>
 <path d="M6553 1451 c-11 -18 -11 -18 20 -3 43 20 44 22 16 22 -13 0 -30 -9 -36 -19z"/>
 <path d="M718 1430 c16 -19 16 -35 -1 -21 -10 8 -14 7 -14 -3 0 -16 29 -15 34 1 2 5 -4 16 -14 24 -15 11 -16 11 -5 -1z"/>
 <path d="M853 1385 c0 -33 2 -45 4 -27 2 18 2 45 0 60 -2 15 -4 0 -4 -33z"/>
 <path d="M1045 1411 c3 -5 -3 -12 -12 -14 -11 -3 -6 -5 11 -6 24 -1 27 1 16 14 -14 16 -25 21 -15 6z"/>
 <path d="M713 1340 c0 -25 2 -35 4 -22 2 12 2 32 0 45 -2 12 -4 2 -4 -23z"/>
 <path d="M558 1363 c12 -2 30 -2 40 0 9 3 -1 5 -23 4 -22 0 -30 -2 -17 -4z"/>
 <path d="M650 1355 c-10 -12 -9 -15 4 -15 10 0 15 4 12 9 -4 5 0 12 6 14 8 4 9 6 2 6 -6 1 -17 -6 -24 -14z"/>
 <path d="M1036 1362 c-2 -4 12 -6 32 -4 56 5 62 10 15 11 -23 1 -44 -3 -47 -7z"/>
 <path d="M726 1279 c-4 -28 -5 -53 -3 -56 3 -2 8 19 12 47 4 28 5 53 2 56 -2 3 -7 -19 -11 -47z"/>
 <path d="M833 1320 c2 -8 14 -16 28 -17 19 -1 20 -1 4 4 -11 3 -24 10 -28 17 -6 7 -7 6 -4 -4z"/>
 <path d="M1113 1313 c9 -2 25 -2 35 0 9 3 1 5 -18 5 -19 0 -27 -2 -17 -5z"/>
 <path d="M2388 1295 c-25 -34 -22 -43 3 -11 12 15 20 29 18 31 -2 1 -12 -7 -21 -20z"/>
 <path d="M540 1306 c0 -2 14 -6 30 -8 17 -3 30 -1 30 4 0 4 -13 8 -30 8 -16 0 -30 -2 -30 -4z"/>
 <path d="M4254 1200 c0 -58 1 -81 3 -52 2 28 2 76 0 105 -2 28 -3 5 -3 -53z"/>
 <path d="M6476 1285 c4 -9 9 -13 12 -10 3 3 13 -2 23 -11 18 -17 39 -12 39 9 0 7 -4 6 -10 -3 -8 -12 -11 -12 -27 1 -31 27 -43 32 -37 14z"/>
 <path d="M6750 1297 c0 -2 15 -16 33 -33 l32 -29 -29 33 c-28 30 -36 37 -36 29z"/>
 <path d="M5888 1259 c18 -19 30 -38 27 -41 -3 -3 1 -8 10 -11 27 -11 16 8 -27 48 -40 37 -41 37 -10 4z"/>
 <path d="M538 1273 c12 -2 30 -2 40 0 9 3 -1 5 -23 4 -22 0 -30 -2 -17 -4z"/>
 <path d="M650 1263 c19 -3 38 -10 42 -16 5 -8 8 -6 8 6 0 14 -8 17 -42 15 -41 -1 -41 -1 -8 -5z"/>
 <path d="M2103 1205 c0 -38 2 -53 4 -32 2 20 2 52 0 70 -2 17 -4 1 -4 -38z"/>
 <path d="M840 1256 c0 -2 13 -6 29 -8 17 -2 28 -1 25 4 -5 8 -54 12 -54 4z"/>
 <path d="M1064 1251 c4 -5 0 -12 -6 -14 -7 -3 -2 -6 11 -6 20 -1 21 1 11 14 -14 16 -25 21 -16 6z"/>
 <path d="M1158 1253 c12 -2 32 -2 45 0 12 2 2 4 -23 4 -25 0 -35 -2 -22 -4z"/>
 <path d="M3423 1220 c0 -25 2 -35 4 -22 2 12 2 32 0 45 -2 12 -4 2 -4 -23z"/>
 <path d="M5803 1253 c9 -2 25 -2 35 0 9 3 1 5 -18 5 -19 0 -27 -2 -17 -5z"/>
 <path d="M5035 1190 c33 -33 62 -60 64 -60 3 0 -21 27 -54 60 -33 33 -62 60 -64 60 -3 0 21 -27 54 -60z"/>
 <path d="M515 1220 l-40 -7 37 -2 c20 0 40 4 43 9 3 6 5 9 3 9 -2 -1 -21 -5 -43 -9z"/>
 <path d="M291 1206 c-10 -12 -8 -17 8 -25 11 -6 28 -11 38 -10 10 0 3 5 -15 10 -28 8 -32 12 -22 24 7 8 10 15 7 15 -2 0 -10 -6 -16 -14z"/>
 <path d="M638 1213 c12 -2 30 -2 40 0 9 3 -1 5 -23 4 -22 0 -30 -2 -17 -4z"/>
 <path d="M993 1213 c15 -2 37 -2 50 0 12 2 0 4 -28 4 -27 0 -38 -2 -22 -4z"/>
 <path d="M1133 1213 c9 -2 25 -2 35 0 9 3 1 5 -18 5 -19 0 -27 -2 -17 -5z"/>
 <path d="M3750 1210 c0 -6 -10 -15 -22 -20 -15 -6 -17 -9 -7 -9 9 -1 24 8 34 19 10 11 13 20 7 20 -7 0 -12 -5 -12 -10z"/>
 <path d="M2040 1152 l5 -47 3 39 c2 21 0 42 -5 47 -4 4 -6 -13 -3 -39z"/>
 <path d="M485 1181 c17 -3 29 -11 27 -16 -2 -6 4 -11 13 -11 14 -2 14 -2 0 3 -11 3 -13 8 -6 17 8 9 1 12 -27 13 -35 1 -35 1 -7 -6z"/>
 <path d="M613 1183 c9 -2 25 -2 35 0 9 3 1 5 -18 5 -19 0 -27 -2 -17 -5z"/>
 <path d="M3302 1150 c0 -19 2 -27 5 -17 2 9 2 25 0 35 -3 9 -5 1 -5 -18z"/>
 <path d="M1165 1160 c-3 -5 -3 -10 2 -10 4 0 1 -5 -7 -10 -13 -8 -13 -10 2 -10 11 0 16 7 15 20 -1 23 -3 24 -12 10z"/>
 <path d="M476 1138 c3 -5 42 -7 87 -7 94 1 85 7 -20 11 -39 2 -69 0 -67 -4z"/>
 <path d="M1438 1128 c22 -24 22 -27 5 -31 -15 -4 -15 -5 -1 -6 29 -2 29 15 0 40 l-27 24 23 -27z"/>
 <path d="M2750 1133 c30 -2 58 -10 63 -16 6 -8 7 -7 4 3 -3 11 -19 15 -63 16 l-59 1 55 -4z"/>
 <path d="M2576 1122 c6 -4 14 -14 17 -22 4 -10 6 -8 6 8 1 15 -5 22 -16 22 -11 0 -14 -3 -7 -8z"/>
 <path d="M6778 1123 c18 -2 45 -2 60 0 15 2 0 4 -33 4 -33 0 -45 -2 -27 -4z"/>
 <path d="M7213 1123 c9 -2 25 -2 35 0 9 3 1 5 -18 5 -19 0 -27 -2 -17 -5z"/>
 <path d="M3433 1075 c0 -27 2 -38 4 -22 2 15 2 37 0 50 -2 12 -4 0 -4 -28z"/>
 <path d="M3703 1093 c-3 -10 -8 -22 -11 -27 -3 -5 0 -6 6 -2 7 4 12 14 12 23 0 10 6 14 20 10 11 -3 18 -1 14 4 -9 15 -34 10 -41 -8z"/>
 <path d="M3844 1095 c-3 -8 -4 -20 -1 -27 3 -7 6 -3 6 9 1 12 7 24 14 26 9 4 9 6 -1 6 -7 1 -15 -6 -18 -14z"/>
 <path d="M317 1064 c-10 -13 -14 -24 -10 -24 9 0 36 40 31 45 -2 2 -11 -8 -21 -21z"/>
 <path d="M556 1062 c-3 -5 5 -7 18 -5 19 4 25 0 29 -16 4 -20 5 -19 3 1 -1 24 -38 38 -50 20z"/>
 <path d="M1064 1057 c-3 -8 -4 -52 -2 -98 l3 -84 5 98 c5 96 4 109 -6 84z"/>
 <path d="M6508 1063 c12 -2 32 -2 45 0 12 2 2 4 -23 4 -25 0 -35 -2 -22 -4z"/>
 <path d="M870 1036 c0 -14 4 -27 8 -30 5 -3 6 8 4 25 -5 35 -12 38 -12 5z"/>
 <path d="M6575 1050 c-2 -3 7 -7 20 -8 13 -1 26 2 29 6 2 4 -7 7 -21 7 -14 0 -26 -2 -28 -5z"/>
 <path d="M6738 1053 c18 -2 45 -2 60 0 15 2 0 4 -33 4 -33 0 -45 -2 -27 -4z"/>
 <path d="M4162 1020 c0 -19 2 -27 5 -17 2 9 2 25 0 35 -3 9 -5 1 -5 -18z"/>
 <path d="M6928 1031 c-14 -17 -14 -20 -2 -25 9 -3 12 -1 9 4 -3 6 -2 10 3 10 5 0 9 7 9 15 0 19 1 19 -19 -4z"/>
 <path d="M687 1033 c18 -2 50 -2 70 0 21 2 7 4 -32 4 -38 0 -55 -2 -38 -4z"/>
 <path d="M1910 996 c0 -14 4 -27 8 -30 5 -3 6 8 4 25 -5 35 -12 38 -12 5z"/>
 <path d="M7382 990 c0 -19 2 -27 5 -17 2 9 2 25 0 35 -3 9 -5 1 -5 -18z"/>
 <path d="M2697 1003 c18 -2 50 -2 70 0 21 2 7 4 -32 4 -38 0 -55 -2 -38 -4z"/>
 <path d="M646 992 c-2 -4 11 -6 30 -4 19 2 34 6 34 8 0 8 -59 4 -64 -4z"/>
 <path d="M753 993 c9 -2 25 -2 35 0 9 3 1 5 -18 5 -19 0 -27 -2 -17 -5z"/>
 <path d="M6669 958 c-16 -24 -17 -28 -3 -13 10 11 25 26 33 33 9 7 10 12 4 12 -7 0 -22 -15 -34 -32z"/>
 <path d="M2553 973 c9 -2 25 -2 35 0 9 3 1 5 -18 5 -19 0 -27 -2 -17 -5z"/>
 <path d="M2658 973 c12 -2 30 -2 40 0 9 3 -1 5 -23 4 -22 0 -30 -2 -17 -4z"/>
 <path d="M923 963 c20 -2 54 -2 75 0 20 2 3 4 -38 4 -41 0 -58 -2 -37 -4z"/>
 <path d="M3820 948 c0 -4 16 -8 35 -8 19 0 35 2 35 4 0 2 -16 6 -35 8 -19 2 -35 0 -35 -4z"/>
 <path d="M2115 929 c-4 -11 -4 -23 -1 -26 3 -4 6 1 6 11 0 9 4 14 10 11 6 -3 7 1 4 9 -8 21 -11 20 -19 -5z"/>
 <path d="M3968 943 c12 -2 30 -2 40 0 9 3 -1 5 -23 4 -22 0 -30 -2 -17 -4z"/>
 <path d="M4138 928 c5 -7 12 -24 15 -38 4 -22 4 -21 6 6 1 21 -5 34 -15 38 -13 5 -14 3 -6 -6z"/>
 <path d="M6893 933 c15 -2 39 -2 55 0 15 2 2 4 -28 4 -30 0 -43 -2 -27 -4z"/>
 <path d="M972 923 c56 -4 57 -5 61 -36 4 -31 4 -31 5 6 l2 37 -62 -2 -63 -2 57 -3z"/>
 <path d="M1123 865 c0 -33 2 -45 4 -27 2 18 2 45 0 60 -2 15 -4 0 -4 -33z"/>
 <path d="M2497 913 c-9 -2 -15 -9 -11 -14 4 -6 10 -6 17 -1 7 6 21 12 32 15 l20 5 -20 0 c-11 0 -28 -2 -38 -5z"/>
 <path d="M3282 890 c0 -19 2 -27 5 -17 2 9 2 25 0 35 -3 9 -5 1 -5 -18z"/>
 <path d="M713 903 c9 -2 25 -2 35 0 9 3 1 5 -18 5 -19 0 -27 -2 -17 -5z"/>
 <path d="M5735 903 c11 -3 26 -10 33 -15 9 -8 11 -7 6 6 -4 10 -16 16 -33 15 -20 -1 -22 -2 -6 -6z"/>
 <path d="M4230 871 c0 -17 4 -32 8 -35 4 -2 6 11 4 30 -5 42 -12 45 -12 5z"/>
 <path d="M612 860 c0 -19 2 -27 5 -17 2 9 2 25 0 35 -3 9 -5 1 -5 -18z"/>
 <path d="M3713 874 c-3 -8 2 -22 11 -30 9 -8 11 -9 6 -2 -15 18 -12 36 8 41 16 4 16 5 -1 6 -10 0 -20 -6 -24 -15z"/>
 <path d="M5508 883 c12 -2 30 -2 40 0 9 3 -1 5 -23 4 -22 0 -30 -2 -17 -4z"/>
 <path d="M5363 873 c9 -2 25 -2 35 0 9 3 1 5 -18 5 -19 0 -27 -2 -17 -5z"/>
 <path d="M6618 863 c14 -3 22 -10 20 -21 -2 -10 5 -17 17 -19 15 -2 16 -1 5 5 -8 4 -15 14 -15 22 0 9 -10 15 -25 16 -22 1 -23 0 -2 -3z"/>
 <path d="M2573 853 c15 -2 37 -2 50 0 12 2 0 4 -28 4 -27 0 -38 -2 -22 -4z"/>
 <path d="M2698 853 c12 -2 30 -2 40 0 9 3 -1 5 -23 4 -22 0 -30 -2 -17 -4z"/>
 <path d="M6718 853 c12 -2 32 -2 45 0 12 2 2 4 -23 4 -25 0 -35 -2 -22 -4z"/>
 <path d="M6703 813 c9 -2 25 -2 35 0 9 3 1 5 -18 5 -19 0 -27 -2 -17 -5z"/>
 <path d="M7113 813 c9 -2 25 -2 35 0 9 3 1 5 -18 5 -19 0 -27 -2 -17 -5z"/>
 <path d="M6963 803 c9 -2 25 -2 35 0 9 3 1 5 -18 5 -19 0 -27 -2 -17 -5z"/>
 <path d="M2069 783 c-12 -16 -12 -16 1 -6 8 6 29 13 45 16 l30 4 -31 2 c-20 0 -37 -6 -45 -16z"/>
 <path d="M2483 793 c9 -2 25 -2 35 0 9 3 1 5 -18 5 -19 0 -27 -2 -17 -5z"/>
 <path d="M673 783 c59 -2 155 -2 215 0 59 1 10 3 -108 3 -118 0 -167 -2 -107 -3z"/>
 <path d="M6644 772 c3 -5 17 -9 31 -9 32 0 27 6 -10 13 -14 2 -24 1 -21 -4z"/>
 <path d="M603 753 c20 -2 54 -2 75 0 20 2 3 4 -38 4 -41 0 -58 -2 -37 -4z"/>
 <path d="M960 752 c0 -4 21 -6 48 -4 82 5 89 9 20 11 -38 0 -68 -2 -68 -7z"/>
 <path d="M1119 712 c5 -34 6 -35 9 -8 2 16 0 32 -5 37 -5 5 -7 -7 -4 -29z"/>
 <path d="M2178 743 c12 -2 32 -2 45 0 12 2 2 4 -23 4 -25 0 -35 -2 -22 -4z"/>
 <path d="M6941 717 l-25 -32 30 27 c16 14 38 28 49 31 16 4 15 5 -5 5 -17 1 -33 -10 -49 -31z"/>
 <path d="M4890 725 c-14 -8 -20 -14 -15 -14 6 0 21 6 35 14 14 8 21 14 15 14 -5 0 -21 -6 -35 -14z"/>
 <path d="M2247 723 c-13 -12 -7 -21 18 -27 25 -6 35 -36 13 -36 -7 0 -5 -5 5 -11 10 -6 21 -8 24 -5 4 3 2 6 -4 6 -6 0 -9 9 -6 20 4 14 -2 23 -21 31 -19 9 -23 15 -14 21 8 4 8 8 2 8 -6 0 -14 -3 -17 -7z"/>
 <path d="M244 700 c1 -9 12 -16 26 -17 21 -1 21 -1 3 3 -12 3 -24 11 -26 17 -2 7 -3 5 -3 -3z"/>
 <path d="M6610 699 c0 -6 8 -8 18 -5 9 3 33 1 52 -4 25 -7 38 -7 47 3 9 9 -1 12 -53 14 -37 1 -64 -2 -64 -8z"/>
 <path d="M2898 693 c12 -2 30 -2 40 0 9 3 -1 5 -23 4 -22 0 -30 -2 -17 -4z"/>
 <path d="M648 683 c12 -2 32 -2 45 0 12 2 2 4 -23 4 -25 0 -35 -2 -22 -4z"/>
 <path d="M823 683 c9 -2 25 -2 35 0 9 3 1 5 -18 5 -19 0 -27 -2 -17 -5z"/>
 <path d="M965 680 c-12 -19 6 -30 50 -30 24 0 46 -5 48 -10 3 -6 4 -5 3 2 -2 8 -21 14 -49 16 -56 4 -62 19 -9 25 l37 4 -37 1 c-20 1 -40 -2 -43 -8z"/>
 <path d="M2642 634 c9 -3 19 -13 22 -22 3 -12 4 -12 3 3 -1 12 -10 21 -22 22 -15 1 -15 0 -3 -3z"/>
 <path d="M6643 624 c3 -4 25 -10 49 -14 38 -7 41 -7 23 6 -18 13 -85 21 -72 8z"/>
 <path d="M648 613 c12 -2 32 -2 45 0 12 2 2 4 -23 4 -25 0 -35 -2 -22 -4z"/>
 <path d="M1988 613 c23 -2 59 -2 80 0 20 2 1 4 -43 4 -44 0 -61 -2 -37 -4z"/>
 <path d="M6840 585 c-14 -17 -7 -45 12 -45 10 0 9 3 -1 9 -8 5 -11 16 -8 26 4 9 12 13 18 9 8 -4 9 -3 5 4 -9 15 -11 15 -26 -3z"/>
 <path d="M609 573 c-12 -16 -12 -17 1 -7 8 7 24 14 35 17 19 4 19 5 -1 6 -12 0 -28 -7 -35 -16z"/>
 <path d="M1392 485 c-8 -9 -24 -13 -45 -9 -30 4 -30 4 -7 -6 26 -12 70 1 70 20 0 13 -2 12 -18 -5z"/>
 <path d="M290 470 c0 -5 12 -10 28 -9 24 0 25 1 7 9 -27 12 -35 12 -35 0z"/>
 <path d="M967 408 c2 -5 24 -8 48 -8 24 0 46 3 48 8 3 4 -19 7 -48 7 -29 0 -51 -3 -48 -7z"/>
 <path d="M366 375 c-3 -9 -6 -26 -5 -38 1 -14 4 -9 9 13 9 37 7 52 -4 25z"/>
 <path d="M1286 350 c8 -43 14 -51 14 -19 0 13 -5 31 -10 39 -7 11 -8 5 -4 -20z"/>
 <path d="M569 357 c5 -5 26 -7 47 -5 l39 3 -47 5 c-26 3 -43 1 -39 -3z"/>
 <path d="M893 353 c15 -2 39 -2 55 0 15 2 2 4 -28 4 -30 0 -43 -2 -27 -4z"/>
 <path d="M730 155 c52 -52 97 -95 100 -95 2 0 -30 35 -73 78 -43 43 -74 82 -70 87 4 4 3 5 -3 2 -7 -4 -14 0 -18 8 -3 8 -11 15 -18 15 -7 0 30 -43 82 -95z"/>
 <path d="M1010 240 c0 -5 -3 -9 -7 -7 -5 1 -8 -1 -8 -5 0 -4 -36 -45 -80 -90 -74 -77 -73 -76 18 12 53 52 97 96 97 97 0 2 -4 3 -10 3 -5 0 -10 -4 -10 -10z"/>
 </g></g></svg>